<svg xmlns="http://www.w3.org/2000/svg" xmlns:xlink="http://www.w3.org/1999/xlink" id="Calque_1" x="0" y="0" enable-background="new 0 0 32 32" version="1.1" viewBox="0 0 32 32" xml:space="preserve"><path fill="#4D4D4D" fill-rule="evenodd" d="M28,6c0-1.1-0.9-2-2-2H6C4.9,4,4,4.9,4,6v20c0,1.1,0.9,2,2,2h20	c1.1,0,2-0.9,2-2V6z" clip-rule="evenodd"/><path fill="#F2F2F2" fill-rule="evenodd" d="M26,32H6c-3.3,0-6-2.7-6-6V6c0-3.3,2.7-6,6-6h20c3.3,0,6,2.7,6,6	v20C32,29.3,29.3,32,26,32z M28,6c0-1.1-0.9-2-2-2H6C4.9,4,4,4.9,4,6v20c0,1.1,0.9,2,2,2h20c1.1,0,2-0.9,2-2V6z" clip-rule="evenodd"/><path fill="#FFF" fill-rule="evenodd" d="M10.6,24.2c-0.3,0-0.6-0.1-0.8-0.2C9.3,23.7,9,23.2,9,22.6V9.8	c0-0.6,0.3-1.1,0.8-1.4c0.3-0.2,0.5-0.2,0.8-0.2c0.2,0,0.5,0.1,0.7,0.2l12.8,6.4c0.5,0.3,0.9,0.8,0.9,1.4c0,0.6-0.3,1.2-0.9,1.4	L11.3,24C11.1,24.1,10.8,24.2,10.6,24.2z" clip-rule="evenodd"/></svg>