<svg xmlns="http://www.w3.org/2000/svg" xmlns:xlink="http://www.w3.org/1999/xlink" id="Calque_1" x="0" y="0" enable-background="new 0 0 32 32" version="1.1" viewBox="0 0 32 32" xml:space="preserve"><g><path fill="#36C" fill-rule="evenodd" d="M28,32H4c-2.2,0-4-1.8-4-4V4c0-2.2,1.8-4,4-4h24c2.2,0,4,1.8,4,4 v24C32,30.2,30.2,32,28,32z M30,4c0-1.1-0.9-2-2-2H4C2.9,2,2,2.9,2,4v24c0,1.1,0.9,2,2,2h24c1.1,0,2-0.9,2-2V4z" clip-rule="evenodd"/><g><path fill="#36C" d="M10.6,26C9.8,26,9,25.4,9,24.2V7.8C9,6.6,9.8,6,10.6,6c0.4,0,0.7,0.1,1.1,0.3l13,8.2 c0.6,0.3,0.9,0.9,0.9,1.5s-0.3,1.1-0.9,1.5l-13,8.2C11.3,25.9,10.9,26,10.6,26z M11,8.3l0,15.4L23.2,16L11,8.3z"/></g></g></svg>