<svg xmlns="http://www.w3.org/2000/svg" xmlns:svg="http://www.w3.org/2000/svg" xmlns:xlink="http://www.w3.org/1999/xlink" id="svg2811" width="128" height="128" version="1.0"><metadata/><defs id="defs2813"><linearGradient id="linearGradient3629"><stop id="stop3631" offset="0" style="stop-color:#ffda36;stop-opacity:1"/><stop id="stop3633" offset="1" style="stop-color:#ffda36;stop-opacity:0"/></linearGradient><linearGradient id="linearGradient3067" x1="122.744" x2="122.392" y1="96.722" y2="20.044" gradientTransform="matrix(1.0033808,0,0,1,-8.2378002,8)" gradientUnits="userSpaceOnUse"><stop id="stop3069" offset="0" style="stop-color:#88c4ff;stop-opacity:1"/><stop id="stop3077" offset=".131" style="stop-color:#b3d9ff;stop-opacity:1"/><stop id="stop3071" offset=".72" style="stop-color:#71a8f5"/><stop id="stop3073" offset="1" style="stop-color:#508ed9;stop-opacity:1"/></linearGradient><linearGradient id="linearGradient2822"><stop id="stop2824" offset="0" style="stop-color:#fff;stop-opacity:1"/><stop id="stop2826" offset="1" style="stop-color:#fff;stop-opacity:0"/></linearGradient><linearGradient id="XMLID_9_" x1="71.999" x2="71.999" y1="14.258" y2="19.958" gradientTransform="matrix(1.0033404,0,0,1,-8.2374684,8)" gradientUnits="userSpaceOnUse"><stop id="stop46" offset=".25" style="stop-color:#71a8f5;stop-opacity:0"/><stop id="stop48" offset="1" style="stop-color:#0057ae;stop-opacity:1"/></linearGradient><linearGradient id="XMLID_8_" x1="72.001" x2="72.001" y1="96" y2="20" gradientTransform="matrix(1.0033876,0,0,1,1.7561237,8)" gradientUnits="userSpaceOnUse"><stop id="stop35" offset="0" style="stop-color:#cfe7ff;stop-opacity:1"/><stop id="stop37" offset=".592" style="stop-color:#71a8f5"/><stop id="stop39" offset="1" style="stop-color:#2c72c7"/></linearGradient><filter id="filter2807" width="1.051" height="1.768" x="-.026" y="-.384"><feGaussianBlur id="feGaussianBlur2809" stdDeviation="1.28"/></filter><linearGradient id="XMLID_6_" x1="72.001" x2="72.001" y1="96" y2="0" gradientTransform="translate(-7.999995,8)" gradientUnits="userSpaceOnUse"><stop id="stop7" offset="0" style="stop-color:#00479e"/><stop id="stop9" offset=".077" style="stop-color:#2c72c7"/><stop id="stop11" offset=".586" style="stop-color:#6ea1df;stop-opacity:1"/><stop id="stop13" offset=".965" style="stop-color:#adcbee;stop-opacity:1"/></linearGradient><linearGradient id="linearGradient2828" x1="22.414" x2="22.414" y1="28.5" y2="34.473" gradientTransform="translate(10,0)" gradientUnits="userSpaceOnUse" xlink:href="#linearGradient2822"/><linearGradient id="linearGradient2838" x1="72.001" x2="72.001" y1="96" y2="20" gradientTransform="matrix(1.0033876,0,0,1,-8.2438763,8)" gradientUnits="userSpaceOnUse" xlink:href="#XMLID_8_"/><clipPath id="clipPath2844" clipPathUnits="userSpaceOnUse"><path id="path2846" d="M 133.86613,100.978 C 133.79288,102.369 132.59585,103.5 131.19913,103.5 L 16.812952,103.5 C 15.415236,103.5 14.2192,102.368 14.145947,100.979 C 14.145947,100.979 10.508666,30.967 10.508666,30.957 C 10.461513,30.301 10.673223,29.685 11.105684,29.22 C 11.539144,28.756 12.140172,28.501 12.799403,28.501 L 135.21268,28.501 C 135.8719,28.501 136.47293,28.756 136.90339,29.219 C 137.33384,29.682 137.54254,30.298 137.49137,30.966 L 133.86613,100.978 z" style="fill:#ff00bf"/></clipPath><filter id="filter2848" width="1.025" height="1.83" x="-.012" y="-.415"><feGaussianBlur id="feGaussianBlur2850" stdDeviation=".654"/></filter><linearGradient id="linearGradient3109" x1="122.744" x2="122.744" y1="96.722" y2="20" gradientTransform="matrix(1.0033808,0,0,1,-8.2378,8)" gradientUnits="userSpaceOnUse" xlink:href="#linearGradient3067"/><linearGradient id="linearGradient3290"><stop id="stop3292" offset="0" style="stop-color:yellow;stop-opacity:1"/><stop id="stop3294" offset="1" style="stop-color:#ffb66d;stop-opacity:1"/></linearGradient><linearGradient id="linearGradient3273"><stop id="stop3275" offset="0" style="stop-color:#fff;stop-opacity:.55035973"/><stop id="stop3277" offset="1" style="stop-color:#fff;stop-opacity:0"/></linearGradient><linearGradient id="linearGradient3291"><stop id="stop3293" offset="0" style="stop-color:black;stop-opacity:1"/><stop id="stop3295" offset="1" style="stop-color:black;stop-opacity:0"/></linearGradient><linearGradient id="linearGradient3638"><stop id="stop3640" offset="0" style="stop-color:#fff;stop-opacity:0"/><stop id="stop3661" offset=".069" style="stop-color:#fff;stop-opacity:1"/><stop id="stop3659" offset=".5" style="stop-color:#fff;stop-opacity:1"/><stop id="stop3642" offset="1" style="stop-color:#fff;stop-opacity:0"/></linearGradient><linearGradient id="linearGradient12948"><stop id="stop12950" offset="0" style="stop-color:#fff;stop-opacity:1"/><stop id="stop12952" offset="1" style="stop-color:silver;stop-opacity:0"/></linearGradient><linearGradient id="linearGradient1563"><stop id="stop1565" offset="0" style="stop-color:#fff;stop-opacity:1"/><stop id="stop1567" offset="1" style="stop-color:white;stop-opacity:0"/></linearGradient><radialGradient id="radialGradient3673" cx="41.233" cy="39.833" r="8.132" fx="41.41" fy="44.37" gradientTransform="matrix(1,0,0,0.75,0,9.9581557)" gradientUnits="userSpaceOnUse" xlink:href="#linearGradient3309"/><radialGradient id="radialGradient3669" cx="41.233" cy="39.833" r="8.132" fx="41.41" fy="44.37" gradientTransform="matrix(1,0,0,0.75,0,9.9581557)" gradientUnits="userSpaceOnUse" xlink:href="#linearGradient3309"/><filter id="filter3663"><feGaussianBlur id="feGaussianBlur3665" stdDeviation=".242"/></filter><radialGradient id="radialGradient3638" cx="41.233" cy="39.833" r="8.132" fx="41.41" fy="44.37" gradientTransform="matrix(1,0,0,0.75,0,9.9581557)" gradientUnits="userSpaceOnUse" xlink:href="#linearGradient3640"/><radialGradient id="radialGradient3620" cx="122.694" cy="52.672" r="3.188" fx="122.558" fy="51.026" gradientTransform="matrix(1.2538745,-0.4598801,0.2575547,0.7022291,-43.321636,71.69735)" gradientUnits="userSpaceOnUse" xlink:href="#linearGradient1563"/><radialGradient id="radialGradient3618" cx="121.586" cy="52.855" r="3.188" fx="121.586" fy="52.855" gradientTransform="matrix(2.2248115,-0.5961364,0.2773621,1.0351295,-163.57967,70.62501)" gradientUnits="userSpaceOnUse" xlink:href="#linearGradient1563"/><filter id="filter3604" width="1.231" height="1.213" x="-.115" y="-.106"><feGaussianBlur id="feGaussianBlur3606" stdDeviation=".258"/></filter><radialGradient id="radialGradient3570" cx="122.694" cy="52.672" r="3.188" fx="122.558" fy="51.026" gradientTransform="matrix(1.2538745,-0.4598801,0.2575547,0.7022291,-43.321636,71.69735)" gradientUnits="userSpaceOnUse" xlink:href="#linearGradient1563"/><filter id="filter3564" width="1.364" height="1.336" x="-.182" y="-.168"><feGaussianBlur id="feGaussianBlur3566" stdDeviation=".408"/></filter><radialGradient id="radialGradient3382" cx="121.586" cy="52.855" r="3.188" fx="121.586" fy="52.855" gradientTransform="matrix(2.2248115,-0.5961364,0.2773621,1.0351295,-163.57967,70.62501)" gradientUnits="userSpaceOnUse" xlink:href="#linearGradient1563"/><radialGradient id="radialGradient3372" cx="64.102" cy="48.703" r="56.812" fx="64.102" fy="48.703" gradientTransform="matrix(1,0,0,0.6476898,0,17.158608)" gradientUnits="userSpaceOnUse" xlink:href="#linearGradient3309"/><filter id="filter3362"><feGaussianBlur id="feGaussianBlur3364" stdDeviation=".379"/></filter><radialGradient id="radialGradient3300" cx="26.574" cy="73.493" r="60.701" fx="35.588" fy="102.799" gradientTransform="matrix(4.6812453,-5.2700969e-7,3.571426e-8,0.3172375,-85.242554,44.725131)" gradientUnits="userSpaceOnUse" xlink:href="#linearGradient3946"/><filter id="filter3285"><feGaussianBlur id="feGaussianBlur3287" stdDeviation=".266"/></filter><radialGradient id="radialGradient3267" cx="64.353" cy="106.713" r="60.701" fx="64.353" fy="106.713" gradientTransform="matrix(0.4443044,1.2598841e-8,0,0.1825067,35.563425,89.646593)" gradientUnits="userSpaceOnUse" xlink:href="#linearGradient3946"/><radialGradient id="radialGradient3263" cx="64.08" cy="66.197" r="60.701" fx="64.08" fy="66.197" gradientTransform="matrix(1,0,0,0.9554688,0,2.9478533)" gradientUnits="userSpaceOnUse" xlink:href="#XMLID_1_"/><filter id="filter3259"><feGaussianBlur id="feGaussianBlur3261" stdDeviation=".237"/></filter><linearGradient id="linearGradient2475" x1="64.08" x2="64.08" y1="-14.227" y2="120.445" gradientUnits="userSpaceOnUse" xlink:href="#XMLID_1_"/><radialGradient id="radialGradient3956" cx="64.353" cy="98.207" r="60.701" fx="64.353" fy="98.207" gradientTransform="matrix(9.1358439e-2,-2.9656957e-8,4.5207376e-8,0.1392616,58.276716,94.261412)" gradientUnits="userSpaceOnUse" xlink:href="#linearGradient3946"/><linearGradient id="linearGradient3934" x1="28.638" x2="31.289" y1="120.85" y2="122.087" gradientUnits="userSpaceOnUse" spreadMethod="reflect" xlink:href="#linearGradient3844"/><filter id="filter3928"><feGaussianBlur id="feGaussianBlur3930" stdDeviation=".183"/></filter><linearGradient id="linearGradient2728" x1="28.638" x2="31.289" y1="120.85" y2="122.087" gradientUnits="userSpaceOnUse" spreadMethod="reflect" xlink:href="#linearGradient3844"/><filter id="filter3838" width="1.356" height="1.31" x="-.178" y="-.155"><feGaussianBlur id="feGaussianBlur3840" stdDeviation=".463"/></filter><linearGradient id="linearGradient3800" x1="63.949" x2="67.219" y1="12.034" y2="12.034" gradientUnits="userSpaceOnUse" spreadMethod="reflect" xlink:href="#linearGradient3363"/><filter id="filter3401"><feGaussianBlur id="feGaussianBlur3403" stdDeviation=".112"/></filter><filter id="filter3391"><feGaussianBlur id="feGaussianBlur3393" stdDeviation=".559"/></filter><linearGradient id="linearGradient3385" x1="216.886" x2="216.886" y1="122.587" y2="37.97" gradientTransform="translate(-152,0)" gradientUnits="userSpaceOnUse" xlink:href="#linearGradient3379"/><linearGradient id="linearGradient3369" x1="177.424" x2="177.601" y1="22.378" y2="93.023" gradientUnits="userSpaceOnUse" xlink:href="#linearGradient3363"/><linearGradient id="linearGradient3345" x1="261.501" x2="200.177" y1="77.652" y2="31.11" gradientTransform="translate(-37.771032,-0.1213203)" gradientUnits="userSpaceOnUse" xlink:href="#linearGradient1563"/><linearGradient id="linearGradient3315" x1="219.222" x2="219.222" y1="28.15" y2="116.418" gradientTransform="translate(-170.08594,0)" gradientUnits="userSpaceOnUse" xlink:href="#linearGradient3363"/><radialGradient id="radialGradient3304" cx="69.527" cy="60.116" r="111.654" fx="69.527" fy="60.116" gradientTransform="matrix(0.5227399,0,-1.554444e-8,0.5266221,349.81061,60.575712)" gradientUnits="userSpaceOnUse" xlink:href="#linearGradient3290"/><radialGradient id="radialGradient2906" cx="69.527" cy="60.116" r="111.654" fx="69.527" fy="89.656" gradientTransform="matrix(0.9439139,-0.3301918,0.332644,0.9509241,-16.097695,27.249949)" gradientUnits="userSpaceOnUse" xlink:href="#linearGradient3290"/><linearGradient id="linearGradient3230" x1="-88.058" x2="-45.097" y1="-131.931" y2="-131.931" gradientTransform="matrix(0,1.022977,-1.022977,0,111.9686,137.8125)" gradientUnits="userSpaceOnUse" xlink:href="#linearGradient3711"/><radialGradient id="radialGradient3228" cx="343.999" cy="92" r="36" fx="343.999" fy="92" gradientUnits="userSpaceOnUse" xlink:href="#linearGradient3711"/><linearGradient id="linearGradient3226" x1="-70.003" x2="-11.916" y1="-383.997" y2="-383.997" gradientTransform="matrix(0,1,-1,0,-39.9985,140.0029)" gradientUnits="userSpaceOnUse" xlink:href="#linearGradient26907"/><linearGradient id="linearGradient2149" x1="62.112" x2="67.888" y1="90.514" y2="39.096" gradientUnits="userSpaceOnUse" xlink:href="#linearGradient3081"/><linearGradient id="XMLID_4_" x1="64.001" x2="64.001" y1="108.865" y2="92.865" gradientUnits="userSpaceOnUse"><stop id="stop7270" offset="0" style="stop-color:#eeeeec"/><stop id="stop7272" offset="1" style="stop-color:#fff"/></linearGradient><linearGradient id="XMLID_3_" x1="63.999" x2="63.999" y1="92.865" y2="120.865" gradientTransform="translate(175.0067,11.74752)" gradientUnits="userSpaceOnUse"><stop id="stop7261" offset="0" style="stop-color:#888a85"/><stop id="stop7263" offset=".323" style="stop-color:#a6a7a3"/><stop id="stop7265" offset="1" style="stop-color:#eeeeec"/></linearGradient><linearGradient id="XMLID_1_" x1="95.693" x2="32.309" y1="141.174" y2="77.789" gradientUnits="userSpaceOnUse"><stop id="stop7227" offset="0" style="stop-color:#ffc60a;stop-opacity:1"/><stop id="stop7233" offset="1" style="stop-color:#b03b00;stop-opacity:1"/></linearGradient><linearGradient id="linearGradient5073"><stop id="stop5075" offset="0" style="stop-color:#000;stop-opacity:1"/><stop id="stop5077" offset="1" style="stop-color:#000;stop-opacity:0"/></linearGradient><radialGradient id="radialGradient5079" cx="80.739" cy="155.372" r="64.797" fx="80.739" fy="177.297" gradientTransform="matrix(1,0,0,0.111111,0,138.1081)" gradientUnits="userSpaceOnUse" xlink:href="#linearGradient5073"/><linearGradient id="linearGradient2690"><stop id="stop2692" offset="0" style="stop-color:#fff;stop-opacity:1"/><stop id="stop2694" offset="1" style="stop-color:silver;stop-opacity:0"/></linearGradient><linearGradient id="linearGradient2684"><stop id="stop2686" offset="0" style="stop-color:#fff;stop-opacity:.55035973"/><stop id="stop2688" offset="1" style="stop-color:#fff;stop-opacity:0"/></linearGradient><linearGradient id="linearGradient2678"><stop id="stop2680" offset="0" style="stop-color:#fff;stop-opacity:1"/><stop id="stop2682" offset="1" style="stop-color:white;stop-opacity:0"/></linearGradient><linearGradient id="linearGradient2668"><stop id="stop2670" offset="0" style="stop-color:#fff;stop-opacity:0"/><stop id="stop2672" offset=".069" style="stop-color:#fff;stop-opacity:1"/><stop id="stop2674" offset=".5" style="stop-color:#fff;stop-opacity:1"/><stop id="stop2676" offset="1" style="stop-color:#fff;stop-opacity:0"/></linearGradient><linearGradient id="linearGradient2662"><stop id="stop2664" offset="0" style="stop-color:yellow;stop-opacity:1"/><stop id="stop2666" offset="1" style="stop-color:#f07800;stop-opacity:1"/></linearGradient><linearGradient id="linearGradient3081"><stop id="stop3083" offset="0" style="stop-color:#28691f;stop-opacity:1"/><stop id="stop3085" offset="1" style="stop-color:#00bf00;stop-opacity:1"/></linearGradient><linearGradient id="linearGradient3711" x1="-84.002" x2="-23.516" y1="-383.997" y2="-383.998" gradientTransform="matrix(0,1,-1,0,-39.9985,140.0029)" gradientUnits="userSpaceOnUse"><stop id="stop3713" offset="0" style="stop-color:white;stop-opacity:1"/><stop id="stop3715" offset="1" style="stop-color:white;stop-opacity:0"/></linearGradient><linearGradient id="linearGradient26907" x1="-84.002" x2="-12.003" y1="-383.997" y2="-383.997" gradientTransform="matrix(0,1,-1,0,-39.9985,140.0029)" gradientUnits="userSpaceOnUse"><stop id="stop26909" offset="0" style="stop-color:#888a85;stop-opacity:1"/><stop id="stop26911" offset="1" style="stop-color:#2e3436;stop-opacity:1"/></linearGradient><linearGradient id="linearGradient3309"><stop id="stop3311" offset="0" style="stop-color:#f4ff3f;stop-opacity:1"/><stop id="stop3313" offset="1" style="stop-color:#fff;stop-opacity:0"/></linearGradient><linearGradient id="linearGradient3363"><stop id="stop3365" offset="0" style="stop-color:#fff;stop-opacity:1"/><stop id="stop3367" offset="1" style="stop-color:#fff;stop-opacity:0"/></linearGradient><linearGradient id="linearGradient3379"><stop id="stop3381" offset="0" style="stop-color:#fffc07;stop-opacity:1"/><stop id="stop3383" offset="1" style="stop-color:#fffc07;stop-opacity:0"/></linearGradient><linearGradient id="linearGradient3844"><stop id="stop3846" offset="0" style="stop-color:#faff64;stop-opacity:1"/><stop id="stop3848" offset="1" style="stop-color:#faff64;stop-opacity:0"/></linearGradient><linearGradient id="linearGradient3946"><stop id="stop3948" offset="0" style="stop-color:#7e0000;stop-opacity:1"/><stop id="stop3950" offset="1" style="stop-color:#673400;stop-opacity:0"/></linearGradient><linearGradient id="linearGradient3640"><stop id="stop3643" offset="0" style="stop-color:#7e0000;stop-opacity:.50990099"/><stop id="stop3645" offset="1" style="stop-color:#673400;stop-opacity:0"/></linearGradient><radialGradient id="radialGradient2810" cx="64.08" cy="66.197" r="60.701" fx="64.08" fy="66.197" gradientTransform="matrix(1,0,0,0.9554688,0,2.9478533)" gradientUnits="userSpaceOnUse" xlink:href="#XMLID_1_"/><radialGradient id="radialGradient2812" cx="69.527" cy="60.116" r="111.654" fx="69.527" fy="89.656" gradientTransform="matrix(0.9439139,-0.3301918,0.332644,0.9509241,-16.097695,27.249949)" gradientUnits="userSpaceOnUse" xlink:href="#linearGradient3290"/><linearGradient id="linearGradient2814" x1="64.08" x2="64.08" y1="-14.227" y2="120.445" gradientUnits="userSpaceOnUse" xlink:href="#XMLID_1_"/><linearGradient id="linearGradient2816" x1="63.949" x2="67.219" y1="12.034" y2="12.034" gradientUnits="userSpaceOnUse" spreadMethod="reflect" xlink:href="#linearGradient3363"/><radialGradient id="radialGradient2818" cx="64.102" cy="48.703" r="56.812" fx="64.102" fy="48.703" gradientTransform="matrix(1,0,0,0.6476898,0,17.158608)" gradientUnits="userSpaceOnUse" xlink:href="#linearGradient3309"/><radialGradient id="radialGradient2820" cx="41.233" cy="39.833" r="8.132" fx="41.41" fy="44.37" gradientTransform="matrix(1,0,0,0.75,0,9.9581557)" gradientUnits="userSpaceOnUse" xlink:href="#linearGradient3309"/><linearGradient id="linearGradient2823" x1="219.222" x2="219.222" y1="28.15" y2="116.418" gradientTransform="translate(-170.08594,0)" gradientUnits="userSpaceOnUse" xlink:href="#linearGradient3363"/><radialGradient id="radialGradient2825" cx="41.233" cy="39.833" r="8.132" fx="41.41" fy="44.37" gradientTransform="matrix(1,0,0,0.75,0,9.9581557)" gradientUnits="userSpaceOnUse" xlink:href="#linearGradient3309"/><linearGradient id="linearGradient2827" x1="177.424" x2="177.601" y1="22.378" y2="93.023" gradientUnits="userSpaceOnUse" xlink:href="#linearGradient3363"/><linearGradient id="linearGradient2829" x1="261.501" x2="200.177" y1="77.652" y2="31.11" gradientTransform="translate(-37.771032,-0.1213203)" gradientUnits="userSpaceOnUse" xlink:href="#linearGradient1563"/><linearGradient id="linearGradient2831" x1="80.1" x2="77.715" y1="44.808" y2="101.473" gradientTransform="matrix(0.479981,0,0,0.479981,33.177757,62.637707)" gradientUnits="userSpaceOnUse" spreadMethod="reflect" xlink:href="#linearGradient3273"/><radialGradient id="radialGradient2833" cx="64.353" cy="98.207" r="60.701" fx="64.353" fy="98.207" gradientTransform="matrix(9.1358439e-2,-2.9656957e-8,4.5207376e-8,0.1392616,58.276716,94.261412)" gradientUnits="userSpaceOnUse" xlink:href="#linearGradient3946"/><linearGradient id="linearGradient2835" x1="216.886" x2="216.886" y1="122.587" y2="37.97" gradientTransform="translate(-152,0)" gradientUnits="userSpaceOnUse" xlink:href="#linearGradient3379"/><radialGradient id="radialGradient2837" cx="121.586" cy="52.855" r="3.188" fx="121.586" fy="52.855" gradientTransform="matrix(2.2248115,-0.5961364,0.2773621,1.0351295,-163.57967,70.62501)" gradientUnits="userSpaceOnUse" xlink:href="#linearGradient1563"/><radialGradient id="radialGradient2839" cx="122.694" cy="52.672" r="3.188" fx="122.558" fy="51.026" gradientTransform="matrix(1.2538745,-0.4598801,0.2575547,0.7022291,-43.321636,71.69735)" gradientUnits="userSpaceOnUse" xlink:href="#linearGradient1563"/><radialGradient id="radialGradient2841" cx="121.586" cy="52.855" r="3.188" fx="121.586" fy="52.855" gradientTransform="matrix(2.2248115,-0.5961364,0.2773621,1.0351295,-163.57967,70.62501)" gradientUnits="userSpaceOnUse" xlink:href="#linearGradient1563"/><radialGradient id="radialGradient2843" cx="122.694" cy="52.672" r="3.188" fx="122.558" fy="51.026" gradientTransform="matrix(1.2538745,-0.4598801,0.2575547,0.7022291,-43.321636,71.69735)" gradientUnits="userSpaceOnUse" xlink:href="#linearGradient1563"/><linearGradient id="linearGradient2845" x1="216.886" x2="216.886" y1="122.587" y2="37.97" gradientTransform="translate(-152,0)" gradientUnits="userSpaceOnUse" xlink:href="#linearGradient3379"/><linearGradient id="linearGradient2847" x1="28.638" x2="31.289" y1="120.85" y2="122.087" gradientUnits="userSpaceOnUse" spreadMethod="reflect" xlink:href="#linearGradient3844"/><radialGradient id="radialGradient2849" cx="64.353" cy="106.713" r="60.701" fx="64.353" fy="106.713" gradientTransform="matrix(0.4443044,1.2598841e-8,0,0.1825067,35.563425,89.646593)" gradientUnits="userSpaceOnUse" xlink:href="#linearGradient3946"/><radialGradient id="radialGradient2851" cx="26.574" cy="73.493" r="60.701" fx="35.588" fy="102.799" gradientTransform="matrix(4.6812453,-5.2700969e-7,3.571426e-8,0.3172375,-85.242554,44.725131)" gradientUnits="userSpaceOnUse" xlink:href="#linearGradient3946"/><linearGradient id="linearGradient2853" x1="80.1" x2="77.715" y1="44.808" y2="101.473" gradientTransform="matrix(0.479981,0,0,0.479981,33.177757,62.637707)" gradientUnits="userSpaceOnUse" spreadMethod="reflect" xlink:href="#linearGradient3273"/><linearGradient id="linearGradient2855" x1="216.886" x2="216.886" y1="122.587" y2="37.97" gradientTransform="translate(-152,0)" gradientUnits="userSpaceOnUse" xlink:href="#linearGradient3379"/><radialGradient id="radialGradient3635" cx="66.977" cy="54.134" r="41.38" fx="66.977" fy="54.134" gradientTransform="matrix(1.6011045,0,0,1.0874708,-40.260269,-12.584491)" gradientUnits="userSpaceOnUse" xlink:href="#linearGradient3629"/><filter id="filter3653"><feGaussianBlur id="feGaussianBlur3655" stdDeviation="2.161"/></filter><radialGradient id="radialGradient3659" cx="64.111" cy="72.035" r="41.38" fx="64.111" fy="72.035" gradientTransform="matrix(1,0,0,0.6792004,0,23.108756)" gradientUnits="userSpaceOnUse" xlink:href="#linearGradient3629"/><radialGradient id="radialGradient3663" cx="66.891" cy="94.022" r="41.38" fx="66.891" fy="94.022" gradientTransform="matrix(1.3950344,0,0,0.9475079,-26.4241,-2.1179212)" gradientUnits="userSpaceOnUse" xlink:href="#linearGradient3629"/></defs><g id="layer1"><path id="path15" d="M 117.983,19 C 117.992,17.35 116.64999,16 114.99999,16 L 44.961007,16 L 38.375006,9.414 C 37.597005,8.636 36.061006,8 34.961,8 L 13.999998,8 C 11.799996,8 9.999999,9.8 9.999999,12 L 9.999999,19 C 9.999999,19 10.999999,104 7,104 L 121,104 C 116.99999,104 117.983,19 117.983,19 z" style="fill:url(#XMLID_6_)"/><g id="g17" transform="matrix(1.0033404,0,0,1,-8.2374684,8)" style="opacity:.6;filter:url(#filter2807)"><path id="path19" d="M 132,95.146667 C 132,96.877333 128.4,98.293333 124,98.293333 L 20,98.293333 C 15.6,98.293333 12,96.877333 12,95.146667 C 12,93.416 15.6,92 20,92 L 124,92 C 128.4,92 132,93.416 132,95.146667 z"/></g><path id="path30" d="M 124.36598,101.004 C 124.27969,102.652 122.85389,104 121.19831,104 L 6.812906,104 C 5.157329,104 3.731522,102.652 3.644228,101.004 L 0.007982,30.992 C -0.112423,29.347 1.143808,28 2.799384,28 L 125.21183,28 C 126.86741,28 128.11762,29.346 127.9912,30.991 L 124.36598,101.004 z" style="opacity:.9;fill:url(#linearGradient3109);fill-opacity:1"/><path id="path32" d="M 10.580094,28 C 10.551086,23.609 10.516087,20.392 10.500078,19 L 10.500078,12 C 10.500078,10.07 12.07033,8.5 14.000627,8.5 L 34.964921,8.5 C 35.937077,8.5 37.339294,9.081 38.026407,9.768 L 44.759457,16.5 L 115.01648,16.5 C 115.68059,16.5 116.30469,16.76 116.77576,17.233 C 117.24683,17.706 117.50487,18.333 117.50087,18.997 C 117.50087,18.997 117.57288,18.925 117.60989,18.888 C 117.48787,19.495 117.47487,21.062 117.44687,25.161 L 117.43687,28 L 117.92894,28 C 117.95994,22.468 117.99995,19 117.99995,19 C 118.00896,17.35 116.66674,16 115.01648,16 L 44.966498,16 L 38.379463,9.414 C 37.60134,8.636 36.065099,8 34.964921,8 L 14.000627,8 C 11.80028,8 10,9.8 10,12 L 10,19 C 10,19 10.041009,22.468 10.073018,28 L 10.580094,28 z" style="fill:#5293ee;fill-opacity:1"/><path id="path50" d="M 9.8848616,22 C 9.8938916,23.75 9.9029216,25.755 9.9109516,28 L 118.09511,28 C 118.10414,25.755 118.11317,23.75 118.1212,22 L 9.8848616,22 z" style="fill:url(#XMLID_9_);opacity:.5"/><path id="path2788" d="M 12.8125,28.5 C 12.153269,28.5 11.52721,28.754751 11.09375,29.21875 C 10.661289,29.68375 10.452847,30.312749 10.5,30.96875 C 10.5,30.968937 10.559992,32.232788 10.5625,32.28125 C 10.647737,31.886257 10.815287,31.518165 11.09375,31.21875 C 11.52721,30.754751 12.153269,30.5 12.8125,30.5 L 135.21875,30.5 C 135.87797,30.500001 136.47579,30.75575 136.90625,31.21875 C 137.18342,31.516877 137.35439,31.883216 137.4375,32.28125 L 137.5,30.96875 C 137.55117,30.30075 137.3367,29.68175 136.90625,29.21875 C 136.47579,28.75575 135.87797,28.500001 135.21875,28.5 L 12.8125,28.5 z" clip-path="url(#clipPath2844)" transform="translate(-10,0)" style="fill:url(#linearGradient2828);fill-opacity:1;filter:url(#filter2848)"/><path id="path2836" d="M 125.21268,28 L 2.799403,28 C 1.143815,28 -0.1124237,29.347 0.007982,30.992 L 3.645263,101.004 C 3.731547,102.652 5.157364,104 6.812952,104 L 121.19913,104 C 122.85472,104 124.28053,102.652 124.36682,101.004 L 127.99106,30.991 C 128.11849,29.346 126.86827,28 125.21268,28 z M 123.86613,100.978 C 123.79288,102.369 122.59585,103.5 121.19913,103.5 L 6.812952,103.5 C 5.415236,103.5 4.2192,102.368 4.145947,100.979 C 4.145947,100.979 0.508666,30.967 0.508666,30.957 C 0.461513,30.301 0.673223,29.685 1.105684,29.22 C 1.539144,28.756 2.140172,28.501 2.799403,28.501 L 125.21268,28.501 C 125.8719,28.501 126.47293,28.756 126.90339,29.219 C 127.33384,29.682 127.54254,30.298 127.49137,30.966 L 123.86613,100.978 z" style="fill:url(#linearGradient2838)"/><path id="path2857" d="M 65.931929,44.786008 C 55.175741,44.634267 51.043165,70.978907 35.902168,70.978907 L 97.750451,73.3925 C 81.772038,73.3925 79.337655,44.975127 65.931929,44.786008 z" transform="matrix(1.0562371,0,0,1.0562371,-3.6968591,-4.2252662)" style="fill:url(#radialGradient3635);fill-opacity:1;fill-rule:evenodd;stroke:none;stroke-width:1px;stroke-linecap:butt;stroke-linejoin:miter;stroke-opacity:1;filter:url(#filter3653)"/><g id="g2758" transform="matrix(0.6943204,0,0,0.6943204,21.245436,37.651516)"><g id="g3675"><path id="path3961" d="M 64.03125,8.2 C 56.162818,8.2100117 46.828561,34.754451 40.46875,39.3875 C 34.10894,44.020548 5.9844574,44.776082 3.5625,52.2625 C 1.1405426,59.748917 23.465249,76.813524 25.90625,84.29375 C 28.347251,91.77398 20.40967,118.7394 26.78125,123.35625 C 33.15283,127.9731 56.287818,112.02251 64.15625,112.0125 C 72.024682,112.00249 95.202691,127.89555 101.5625,123.2625 C 107.92231,118.62945 99.890544,91.686414 102.3125,84.2 C 104.73446,76.713583 127.03475,59.58648 124.59375,52.10625 C 122.15275,44.626021 94.027829,43.941849 87.65625,39.325 C 81.28467,34.708152 71.899685,8.1899879 64.03125,8.2 z M 64.03125,12.10625 C 64.208046,12.245423 65.56776,12.912264 67.15625,14.85625 C 68.97167,17.077947 71.031426,20.410059 73.0625,23.95 C 75.093573,27.48994 77.113982,31.248819 79.09375,34.5125 C 81.073519,37.776182 82.75512,40.528991 85.40625,42.45 C 88.057376,44.371009 91.18831,45.11637 94.90625,45.98125 C 98.624192,46.846129 102.81606,47.591152 106.8125,48.41875 C 110.80894,49.246347 114.60465,50.166787 117.28125,51.2 C 119.62327,52.104061 120.71845,53.200764 120.90625,53.325 C 120.82618,53.533062 120.57672,54.994782 119.21875,57.10625 C 117.66679,59.519356 115.1453,62.518181 112.40625,65.54375 C 109.66721,68.569316 106.71091,71.652346 104.21875,74.54375 C 101.72659,77.435155 99.632744,79.897501 98.625,83.0125 C 97.617256,86.127495 97.892393,89.334266 98.21875,93.1375 C 98.545107,96.940738 99.114622,101.17466 99.5625,105.23125 C 100.01038,109.28783 100.31178,113.17888 100.15625,116.04375 C 100.02016,118.55052 99.34151,119.89095 99.28125,120.10625 C 99.057443,120.09786 97.552762,120.37027 95.125,119.73125 C 92.350417,119.00093 88.723899,117.49504 85,115.825 C 81.276103,114.15497 77.426259,112.30169 73.90625,110.825 C 70.386242,109.3483 67.4302,108.13334 64.15625,108.1375 C 60.882303,108.14167 57.891241,109.3706 54.375,110.85625 C 50.858761,112.3419 47.032137,114.20799 43.3125,115.8875 C 39.592862,117.567 35.960216,119.05638 33.1875,119.79375 C 30.761373,120.43895 29.286908,120.19088 29.0625,120.2 C 29.004012,119.9864 28.29872,118.6439 28.15625,116.1375 C 27.993428,113.27303 28.281199,109.38271 28.71875,105.325 C 29.156299,101.2673 29.714573,97.035302 30.03125,93.23125 C 30.347928,89.427198 30.609418,86.187425 29.59375,83.075 C 28.578082,79.962573 26.468263,77.522553 23.96875,74.6375 C 21.469238,71.752452 18.527988,68.687339 15.78125,65.66875 C 13.034512,62.650158 10.495601,59.671649 8.9375,57.2625 C 7.5741618,55.154496 7.3592053,53.657399 7.28125,53.45 C 7.2962039,53.537785 8.2681026,52.326785 10.84375,51.325 C 13.517705,50.284977 17.34943,49.350265 21.34375,48.5125 C 25.33807,47.674737 29.534272,46.949339 33.25,46.075 C 36.96573,45.200663 40.103767,44.44025 42.75,42.5125 C 45.396234,40.584748 47.059794,37.812458 49.03125,34.54375 C 51.002705,31.275042 53.009191,27.526347 55.03125,23.98125 C 57.053308,20.436153 59.096493,17.08256 60.90625,14.85625 C 62.489787,12.908229 63.857465,12.244552 64.03125,12.10625 z" style="opacity:1;fill:url(#radialGradient2810);fill-opacity:1;fill-rule:nonzero;stroke:none;stroke-width:14.80851269;stroke-linecap:round;stroke-linejoin:round;stroke-miterlimit:4;stroke-dasharray:none;stroke-dashoffset:4;stroke-opacity:1;filter:url(#filter3259)"/><path id="path3574" d="M 153.09403,94.713757 C 144.53658,107.09689 92.616372,93.013297 78.414631,98.001518 C 64.21289,102.98974 32.50348,146.4474 18.082028,142.13539 C 3.6605746,137.82337 1.0106378,84.092245 -8.1220219,72.127031 C -17.254681,60.161818 -68.384124,43.433534 -68.739625,28.385431 C -69.095125,13.337327 -18.812666,-5.7867426 -10.255219,-18.169872 C -1.697772,-30.553002 -1.5880954,-84.349316 12.613645,-89.337536 C 26.815387,-94.325757 60.541592,-52.41396 74.963045,-48.101941 C 89.384498,-43.789923 140.58172,-60.30959 149.71438,-48.344376 C 158.84704,-36.379162 129.40853,8.6478227 129.76403,23.695927 C 130.11953,38.74403 161.65148,82.330628 153.09403,94.713757 z" transform="matrix(0.4934214,0.1726044,-0.1726044,0.4934214,42.377875,49.908537)" style="opacity:1;fill:url(#radialGradient2812);fill-opacity:1;fill-rule:nonzero;stroke:none;stroke-width:14.80892944;stroke-linecap:round;stroke-linejoin:round;stroke-miterlimit:4;stroke-dasharray:none;stroke-dashoffset:4;stroke-opacity:1"/><path id="path2304" d="M 64.03125,8 C 56.162818,8.0100117 46.828561,34.554451 40.46875,39.1875 C 34.10894,43.820548 5.984457,44.576082 3.5625,52.0625 C 1.140543,59.548917 23.465249,76.613524 25.90625,84.09375 C 28.347251,91.57398 20.40967,118.5394 26.78125,123.15625 C 33.15283,127.7731 56.287818,111.82251 64.15625,111.8125 C 72.024682,111.80249 95.202691,127.69555 101.5625,123.0625 C 107.92231,118.42945 99.890544,91.486414 102.3125,84 C 104.73446,76.513583 127.03475,59.38648 124.59375,51.90625 C 122.15275,44.426021 94.027829,43.741849 87.65625,39.125 C 81.28467,34.508152 71.899685,7.9899879 64.03125,8 z M 64.03125,11.90625 C 64.208046,12.045423 65.56776,12.712264 67.15625,14.65625 C 68.97167,16.877947 71.031426,20.210059 73.0625,23.75 C 75.093573,27.28994 77.113982,31.048819 79.09375,34.3125 C 81.073519,37.576182 82.75512,40.328991 85.40625,42.25 C 88.057376,44.171009 91.18831,44.91637 94.90625,45.78125 C 98.624192,46.646129 102.81606,47.391152 106.8125,48.21875 C 110.80894,49.046347 114.60465,49.966787 117.28125,51 C 119.62327,51.904061 120.71845,53.000764 120.90625,53.125 C 120.82618,53.333062 120.57672,54.794782 119.21875,56.90625 C 117.66679,59.319356 115.1453,62.318181 112.40625,65.34375 C 109.66721,68.369316 106.71091,71.452346 104.21875,74.34375 C 101.72659,77.235155 99.632744,79.697501 98.625,82.8125 C 97.617256,85.927495 97.892393,89.134266 98.21875,92.9375 C 98.545107,96.740738 99.114622,100.97466 99.5625,105.03125 C 100.01038,109.08783 100.31178,112.97888 100.15625,115.84375 C 100.02016,118.35052 99.34151,119.69095 99.28125,119.90625 C 99.057443,119.89786 97.552762,120.17027 95.125,119.53125 C 92.350417,118.80093 88.723899,117.29504 85,115.625 C 81.276103,113.95497 77.426259,112.10169 73.90625,110.625 C 70.386242,109.1483 67.4302,107.93334 64.15625,107.9375 C 60.882303,107.94167 57.891241,109.1706 54.375,110.65625 C 50.858761,112.1419 47.032137,114.00799 43.3125,115.6875 C 39.592862,117.367 35.960216,118.85638 33.1875,119.59375 C 30.761373,120.23895 29.286908,119.99088 29.0625,120 C 29.004012,119.7864 28.29872,118.4439 28.15625,115.9375 C 27.993428,113.07303 28.281199,109.18271 28.71875,105.125 C 29.156299,101.0673 29.714573,96.835302 30.03125,93.03125 C 30.347928,89.227198 30.609418,85.987425 29.59375,82.875 C 28.578082,79.762573 26.468263,77.322553 23.96875,74.4375 C 21.469238,71.552452 18.527988,68.487339 15.78125,65.46875 C 13.034512,62.450158 10.495601,59.471649 8.9375,57.0625 C 7.574162,54.954496 7.359205,53.457399 7.28125,53.25 C 7.296204,53.337785 8.268103,52.126785 10.84375,51.125 C 13.517705,50.084977 17.34943,49.150265 21.34375,48.3125 C 25.33807,47.474737 29.534272,46.749339 33.25,45.875 C 36.96573,45.000663 40.103767,44.24025 42.75,42.3125 C 45.396234,40.384748 47.059794,37.612458 49.03125,34.34375 C 51.002705,31.075042 53.009191,27.326347 55.03125,23.78125 C 57.053308,20.236153 59.096493,16.88256 60.90625,14.65625 C 62.489787,12.708229 63.857465,12.044552 64.03125,11.90625 z" style="opacity:1;fill:url(#linearGradient2814);fill-opacity:1;fill-rule:nonzero;stroke:none;stroke-width:14.80851269;stroke-linecap:round;stroke-linejoin:round;stroke-miterlimit:4;stroke-dasharray:none;stroke-dashoffset:4;stroke-opacity:1"/><path id="path3409" d="M 60.98796,9.471226 C 62.846491,8.2143022 64.889907,8.0204702 67.219338,9.471226 L 64.037358,15.614216 L 60.98796,9.471226 z" style="fill:url(#linearGradient2816);fill-opacity:1;fill-rule:evenodd;stroke:none;stroke-width:1px;stroke-linecap:butt;stroke-linejoin:miter;stroke-opacity:1;filter:url(#filter3838)"/><path id="path3370" d="M 64.039064,11.90625 C 63.865274,12.044552 62.497594,12.708229 60.914064,14.65625 C 59.104304,16.88256 57.061124,20.236153 55.039064,23.78125 C 53.017004,27.326347 51.010514,31.075042 49.039064,34.34375 C 47.067604,37.612458 45.404044,40.384748 42.757814,42.3125 C 40.111574,44.24025 36.973544,45.000663 33.257814,45.875 C 29.542084,46.749339 25.345884,47.474737 21.351564,48.3125 C 17.357244,49.150265 13.525514,50.084977 10.851564,51.125 C 8.2759131,52.126785 7.3040131,53.337785 7.2890631,53.25 C 7.3670131,53.457399 7.5819731,54.954496 8.9453131,57.0625 C 10.503414,59.471649 13.042324,62.450158 15.789064,65.46875 C 18.535804,68.487339 21.477054,71.552452 23.976564,74.4375 C 26.476074,77.322553 28.585894,79.762573 29.601564,82.875 C 29.865144,83.682722 30.019904,84.511238 30.132814,85.34375 C 32.540654,85.431079 34.961934,85.5 37.414064,85.5 C 64.456484,85.5 88.974124,80.107134 106.91406,71.34375 C 108.71383,69.370041 110.60784,67.338911 112.41406,65.34375 C 115.15311,62.318181 117.67459,59.319356 119.22656,56.90625 C 120.58453,54.794782 120.83398,53.333062 120.91406,53.125 C 120.72626,53.000764 119.63107,51.904061 117.28906,51 C 114.61246,49.966787 110.81674,49.046347 106.82031,48.21875 C 102.82387,47.391152 98.631994,46.646129 94.914064,45.78125 C 91.196124,44.91637 88.065184,44.171009 85.414064,42.25 C 82.762934,40.328991 81.081334,37.576182 79.101564,34.3125 C 77.121794,31.048819 75.101384,27.28994 73.070314,23.75 C 71.039234,20.210059 68.979484,16.877947 67.164064,14.65625 C 65.575574,12.712264 64.215854,12.045423 64.039064,11.90625 z" style="opacity:1;fill:url(#radialGradient2818);fill-opacity:1;fill-rule:nonzero;stroke:none;stroke-width:14.80892944;stroke-linecap:round;stroke-linejoin:round;stroke-miterlimit:4;stroke-dasharray:none;stroke-dashoffset:4;stroke-opacity:1"/><path id="path3667" d="M 44.96875,33.9375 L 44.1875,35.21875 C 44.177097,35.219516 44.166653,35.219516 44.15625,35.21875 L 42.8125,36.9375 L 41.53125,38.46875 C 41.521947,38.480223 41.511473,38.490697 41.5,38.5 L 40.03125,39.71875 C 40.021947,39.730223 40.011473,39.740697 40,39.75 L 37.125,41.03125 C 37.115697,41.042723 37.105223,41.053197 37.09375,41.0625 L 33.875,41.96875 L 33.375,45.625 L 35.125,45.21875 L 35.125,45.25 L 39.71875,43.75 L 39.75,43.75 L 42.8125,42.0625 L 42.875,42.03125 L 45.78125,39.09375 L 45.8125,39.0625 L 48.96875,34.03125 L 44.96875,33.9375 z" transform="translate(0,0.3)" style="opacity:.64356432;fill:url(#radialGradient2820);fill-opacity:1;fill-rule:evenodd;stroke:none;stroke-width:1px;stroke-linecap:butt;stroke-linejoin:miter;stroke-opacity:1;filter:url(#filter3663)"/><path id="path2910" d="M 64.039064,11.90625 C 63.865274,12.044552 62.497594,12.708229 60.914064,14.65625 C 59.104304,16.88256 57.061124,20.236153 55.039064,23.78125 C 53.017004,27.326347 51.010514,31.075042 49.039064,34.34375 C 47.067604,37.612458 45.404044,40.384748 42.757814,42.3125 C 40.111574,44.24025 36.973544,45.000663 33.257814,45.875 C 29.542084,46.749339 25.345884,47.474737 21.351564,48.3125 C 17.357244,49.150265 13.525514,50.084977 10.851564,51.125 C 8.2759131,52.126785 7.3040131,53.337785 7.2890631,53.25 C 7.3670131,53.457399 7.5819731,54.954496 8.9453131,57.0625 C 10.503414,59.471649 13.042324,62.450158 15.789064,65.46875 C 18.535804,68.487339 21.477054,71.552452 23.976564,74.4375 C 26.476074,77.322553 28.585894,79.762573 29.601564,82.875 C 29.865144,83.682722 30.019904,84.511238 30.132814,85.34375 C 32.540654,85.431079 34.961934,85.5 37.414064,85.5 C 64.456484,85.5 88.974124,80.107134 106.91406,71.34375 C 108.71383,69.370041 110.60784,67.338911 112.41406,65.34375 C 115.15311,62.318181 117.67459,59.319356 119.22656,56.90625 C 120.58453,54.794782 120.83398,53.333062 120.91406,53.125 C 120.72626,53.000764 119.63107,51.904061 117.28906,51 C 114.61246,49.966787 110.81674,49.046347 106.82031,48.21875 C 102.82387,47.391152 98.631994,46.646129 94.914064,45.78125 C 91.196124,44.91637 88.065184,44.171009 85.414064,42.25 C 82.762934,40.328991 81.081334,37.576182 79.101564,34.3125 C 77.121794,31.048819 75.101384,27.28994 73.070314,23.75 C 71.039234,20.210059 68.979484,16.877947 67.164064,14.65625 C 65.575574,12.712264 64.215854,12.045423 64.039064,11.90625 z" style="opacity:1;fill:url(#linearGradient2823);fill-opacity:1;fill-rule:nonzero;stroke:none;stroke-width:14.80892944;stroke-linecap:round;stroke-linejoin:round;stroke-miterlimit:4;stroke-dasharray:none;stroke-dashoffset:4;stroke-opacity:1"/><path id="path3671" d="M 44.96875,33.9375 L 44.1875,35.21875 C 44.177097,35.219516 44.166653,35.219516 44.15625,35.21875 L 42.8125,36.9375 L 41.53125,38.46875 C 41.521947,38.480223 41.511473,38.490697 41.5,38.5 L 40.03125,39.71875 C 40.021947,39.730223 40.011473,39.740697 40,39.75 L 37.125,41.03125 C 37.115697,41.042723 37.105223,41.053197 37.09375,41.0625 L 33.875,41.96875 L 33.375,45.625 L 35.125,45.21875 L 35.125,45.25 L 39.71875,43.75 L 39.75,43.75 L 42.8125,42.0625 L 42.875,42.03125 L 45.78125,39.09375 L 45.8125,39.0625 L 48.96875,34.03125 L 44.96875,33.9375 z" transform="matrix(-1,0,0,1,128.125,0.3)" style="opacity:.64356432;fill:url(#radialGradient2825);fill-opacity:1;fill-rule:evenodd;stroke:none;stroke-width:1px;stroke-linecap:butt;stroke-linejoin:miter;stroke-opacity:1;filter:url(#filter3663)"/><g id="g3339" transform="translate(-132.29928,0)"><path id="path3317" d="M 196.34375,11.90625 C 196.16996,12.044552 194.80228,12.708229 193.21875,14.65625 C 191.40899,16.88256 189.36581,20.236153 187.34375,23.78125 C 185.32169,27.326347 183.3152,31.075042 181.34375,34.34375 C 179.37229,37.612458 177.70873,40.384748 175.0625,42.3125 C 172.41626,44.24025 169.27823,45.000663 165.5625,45.875 C 161.84677,46.749339 157.65057,47.474737 153.65625,48.3125 C 149.66193,49.150265 145.8302,50.084977 143.15625,51.125 C 140.5806,52.126785 139.6087,53.337785 139.59375,53.25 C 139.62377,53.329884 139.71528,53.638731 139.84375,54.0625 C 140.2595,53.69998 141.25985,52.862595 143.15625,52.125 C 145.8302,51.084977 149.66193,50.150265 153.65625,49.3125 C 157.65057,48.474737 161.84677,47.749339 165.5625,46.875 C 169.27823,46.000663 172.41626,45.24025 175.0625,43.3125 C 177.70873,41.384748 179.37229,38.612458 181.34375,35.34375 C 183.3152,32.075042 185.32169,28.326347 187.34375,24.78125 C 189.36581,21.236153 191.40899,17.88256 193.21875,15.65625 C 194.80228,13.708229 196.16996,13.044552 196.34375,12.90625 C 196.52054,13.045423 197.88026,13.712264 199.46875,15.65625 C 201.28417,17.877947 203.34392,21.210059 205.375,24.75 C 207.40607,28.28994 209.42648,32.048819 211.40625,35.3125 C 213.38602,38.576182 215.06762,41.328991 217.71875,43.25 C 220.36987,45.171009 223.50081,45.91637 227.21875,46.78125 C 230.93668,47.646129 235.12856,48.391152 239.125,49.21875 C 243.12143,50.046347 246.91715,50.966787 249.59375,52 C 251.51448,52.74144 252.56925,53.579608 253,53.9375 C 253.13371,53.522484 253.18802,53.204851 253.21875,53.125 C 253.03095,53.000764 251.93576,51.904061 249.59375,51 C 246.91715,49.966787 243.12143,49.046347 239.125,48.21875 C 235.12856,47.391152 230.93668,46.646129 227.21875,45.78125 C 223.50081,44.91637 220.36987,44.171009 217.71875,42.25 C 215.06762,40.328991 213.38602,37.576182 211.40625,34.3125 C 209.42648,31.048819 207.40607,27.28994 205.375,23.75 C 203.34392,20.210059 201.28417,16.877947 199.46875,14.65625 C 197.88026,12.712264 196.52054,12.045423 196.34375,11.90625 z" style="opacity:1;fill:url(#linearGradient2827);fill-opacity:1;fill-rule:nonzero;stroke:none;stroke-width:14.80892944;stroke-linecap:round;stroke-linejoin:round;stroke-miterlimit:4;stroke-dasharray:none;stroke-dashoffset:4;stroke-opacity:1"/><path id="path3325" d="M 246.78125,49.937636 C 247.42469,50.142466 248.03845,50.379526 248.59375,50.593886 C 250.93576,51.497946 252.03095,52.594656 252.21875,52.718886 C 252.13867,52.926956 251.88922,54.388676 250.53125,56.500136 C 248.97928,58.913246 246.4578,61.912066 243.71875,64.937636 C 241.91253,66.932796 240.01852,68.963926 238.21875,70.937636 C 220.27881,79.701026 195.76117,85.093886 168.71875,85.093886 C 166.59433,85.093886 164.49568,85.039506 162.40625,84.968886 C 162.4184,85.051736 162.42625,85.135936 162.4375,85.218886 C 164.84534,85.306216 167.26662,85.375136 169.71875,85.375136 C 196.76117,85.375136 221.27881,79.982276 239.21875,71.218886 C 241.01852,69.245176 242.91253,67.214046 244.71875,65.218886 C 247.4578,62.193316 249.97928,59.194496 251.53125,56.781386 C 252.88922,54.669926 253.13867,53.208206 253.21875,53.000136 C 253.03095,52.875906 251.93576,51.779196 249.59375,50.875136 C 248.75868,50.552786 247.80629,50.238636 246.78125,49.937636 z" style="opacity:1;fill:url(#linearGradient2829);fill-opacity:1;fill-rule:nonzero;stroke:none;stroke-width:14.80892944;stroke-linecap:round;stroke-linejoin:round;stroke-miterlimit:4;stroke-dasharray:none;stroke-dashoffset:4;stroke-opacity:1"/></g><path id="path3842" d="M 25.190679,119.77989 C 26.414679,122.74238 27.241162,124.11897 31.289475,123.31542 L 30.638356,120.21008 L 29.079766,120.3986 L 28.261711,118.57341 L 25.190679,119.77989 z" style="opacity:.7715356;fill:url(#linearGradient2831);fill-opacity:1;fill-rule:evenodd;stroke:none;stroke-width:1px;stroke-linecap:butt;stroke-linejoin:miter;stroke-opacity:1;filter:url(#filter3928)"/><path id="path3936" d="M 26.03125,94.25 C 24.983755,105.1142 22.21942,119.85075 26.78125,123.15625 C 33.15283,127.7731 56.287818,111.82251 64.15625,111.8125 C 72.024682,111.80249 95.202691,127.69555 101.5625,123.0625 C 106.10279,119.75495 103.30815,105.10184 102.21875,94.25 L 98.34375,94.25 C 98.677864,97.707156 99.164649,101.42777 99.5625,105.03125 C 100.01038,109.08783 100.31178,112.97888 100.15625,115.84375 C 100.02016,118.35052 99.34151,119.69095 99.28125,119.90625 C 99.057443,119.89786 97.552762,120.17027 95.125,119.53125 C 92.350417,118.80093 88.723899,117.29504 85,115.625 C 81.276103,113.95497 77.426259,112.10169 73.90625,110.625 C 70.386242,109.1483 67.4302,107.93334 64.15625,107.9375 C 60.882303,107.94167 57.891241,109.1706 54.375,110.65625 C 50.858761,112.1419 47.032137,114.00799 43.3125,115.6875 C 39.592862,117.367 35.960216,118.85638 33.1875,119.59375 C 30.761373,120.23895 29.286908,119.99088 29.0625,120 C 29.004012,119.7864 28.29872,118.4439 28.15625,115.9375 C 27.993428,113.07303 28.281199,109.18271 28.71875,105.125 C 29.110886,101.48845 29.580993,97.733027 29.90625,94.25 L 26.03125,94.25 z" style="opacity:1;fill:url(#radialGradient2833);fill-opacity:1;fill-rule:nonzero;stroke:none;stroke-width:14.80851269;stroke-linecap:round;stroke-linejoin:round;stroke-miterlimit:4;stroke-dasharray:none;stroke-dashoffset:4;stroke-opacity:1"/><path id="path3375" d="M 64.125001,11.90625 C 63.951211,12.044552 62.583531,12.708229 61.000001,14.65625 C 59.190241,16.88256 57.147061,20.236153 55.125001,23.78125 C 53.102941,27.326347 51.096451,31.075042 49.125001,34.34375 C 47.153541,37.612458 45.489981,40.384748 42.843751,42.3125 C 40.197511,44.24025 37.059481,45.000663 33.343751,45.875 C 29.628021,46.749339 25.431821,47.474737 21.437501,48.3125 C 17.443181,49.150265 13.611451,50.084977 10.937501,51.125 C 8.3618506,52.126785 7.3899506,53.337785 7.3750006,53.25 C 7.4529506,53.457399 7.6679106,54.954496 9.0312506,57.0625 C 10.589351,59.471649 13.128261,62.450158 15.875001,65.46875 C 18.621741,68.487339 21.562991,71.552452 24.062501,74.4375 C 26.562011,77.322553 28.671831,79.762573 29.687501,82.875 C 30.703171,85.987425 30.441681,89.227198 30.125001,93.03125 C 29.808321,96.835302 29.250051,101.0673 28.812501,105.125 C 28.374951,109.18271 28.087181,113.07303 28.250001,115.9375 C 28.392471,118.4439 29.097761,119.7864 29.156251,120 C 29.380661,119.99088 30.855121,120.23895 33.281251,119.59375 C 36.053961,118.85638 39.686611,117.367 43.406251,115.6875 C 47.125881,114.00799 50.952511,112.1419 54.468751,110.65625 C 57.984991,109.1706 60.976051,107.94167 64.250001,107.9375 C 67.523951,107.93334 70.479991,109.1483 74.000001,110.625 C 77.520011,112.10169 81.369851,113.95497 85.093751,115.625 C 88.817651,117.29504 92.444151,118.80093 95.218751,119.53125 C 97.646511,120.17027 99.151181,119.89786 99.375001,119.90625 C 99.435261,119.69095 100.1139,118.35052 100.25,115.84375 C 100.40553,112.97888 100.10412,109.08783 99.656251,105.03125 C 99.208371,100.97466 98.638841,96.740738 98.312501,92.9375 C 97.986141,89.134266 97.710991,85.927495 98.718751,82.8125 C 99.726491,79.697501 101.82033,77.235155 104.3125,74.34375 C 106.80466,71.452346 109.76095,68.369316 112.5,65.34375 C 115.23905,62.318181 117.76053,59.319356 119.3125,56.90625 C 120.67047,54.794782 120.91992,53.333062 121,53.125 C 120.8122,53.000764 119.71701,51.904061 117.375,51 C 114.6984,49.966787 110.90268,49.046347 106.90625,48.21875 C 102.90981,47.391152 98.717931,46.646129 95.000001,45.78125 C 91.282061,44.91637 88.151121,44.171009 85.500001,42.25 C 82.848871,40.328991 81.167271,37.576182 79.187501,34.3125 C 77.207731,31.048819 75.187321,27.28994 73.156251,23.75 C 71.125171,20.210059 69.065421,16.877947 67.250001,14.65625 C 65.661511,12.712264 64.301791,12.045423 64.125001,11.90625 z" style="opacity:1;fill:none;fill-opacity:1;fill-rule:nonzero;stroke:url(#linearGradient2835);stroke-width:1;stroke-linecap:round;stroke-linejoin:round;stroke-miterlimit:4;stroke-dasharray:none;stroke-dashoffset:4;stroke-opacity:1;filter:url(#filter3391)"/><g id="g3612" transform="matrix(-1,0,0,1,128.17175,0)"><path id="path3614" d="M 122.34464,49.937924 L 118.89749,52.943128 L 119.6046,54.97606 L 123.93563,55.771555 C 124.26838,53.827011 124.96313,51.882468 122.34464,49.937924 z" style="opacity:.60891089;fill:url(#radialGradient2837);fill-opacity:1;fill-rule:evenodd;stroke:none;stroke-width:1px;stroke-linecap:butt;stroke-linejoin:miter;stroke-opacity:1;filter:url(#filter3564)"/><path id="path3616" d="M 122.34464,49.937924 L 118.89749,52.943128 L 119.6046,54.97606 L 123.93563,55.771555 C 124.26838,53.827011 124.96313,51.882468 122.34464,49.937924 z" style="opacity:.60891089;fill:url(#radialGradient2839);fill-opacity:1;fill-rule:evenodd;stroke:none;stroke-width:1px;stroke-linecap:butt;stroke-linejoin:miter;stroke-opacity:1;filter:url(#filter3604)"/></g><g id="g3608"><path id="path3374" d="M 122.34464,49.937924 L 118.89749,52.943128 L 119.6046,54.97606 L 123.93563,55.771555 C 124.26838,53.827011 124.96313,51.882468 122.34464,49.937924 z" style="opacity:.60891089;fill:url(#radialGradient2841);fill-opacity:1;fill-rule:evenodd;stroke:none;stroke-width:1px;stroke-linecap:butt;stroke-linejoin:miter;stroke-opacity:1;filter:url(#filter3564)"/><path id="path3568" d="M 122.34464,49.937924 L 118.89749,52.943128 L 119.6046,54.97606 L 123.93563,55.771555 C 124.26838,53.827011 124.96313,51.882468 122.34464,49.937924 z" style="opacity:.60891089;fill:url(#radialGradient2843);fill-opacity:1;fill-rule:evenodd;stroke:none;stroke-width:1px;stroke-linecap:butt;stroke-linejoin:miter;stroke-opacity:1;filter:url(#filter3604)"/></g><path id="path3395" d="M 64.125001,11.90625 C 63.951211,12.044552 62.583531,12.708229 61.000001,14.65625 C 59.190241,16.88256 57.147061,20.236153 55.125001,23.78125 C 53.102941,27.326347 51.096451,31.075042 49.125001,34.34375 C 47.153541,37.612458 45.489981,40.384748 42.843751,42.3125 C 40.197511,44.24025 37.059481,45.000663 33.343751,45.875 C 29.628021,46.749339 25.431821,47.474737 21.437501,48.3125 C 17.443181,49.150265 13.611451,50.084977 10.937501,51.125 C 8.3618506,52.126785 7.3899506,53.337785 7.3750006,53.25 C 7.4529506,53.457399 7.6679106,54.954496 9.0312506,57.0625 C 10.589351,59.471649 13.128261,62.450158 15.875001,65.46875 C 18.621741,68.487339 21.562991,71.552452 24.062501,74.4375 C 26.562011,77.322553 28.671831,79.762573 29.687501,82.875 C 30.703171,85.987425 30.441681,89.227198 30.125001,93.03125 C 29.808321,96.835302 29.250051,101.0673 28.812501,105.125 C 28.374951,109.18271 28.087181,113.07303 28.250001,115.9375 C 28.392471,118.4439 29.097761,119.7864 29.156251,120 C 29.380661,119.99088 30.855121,120.23895 33.281251,119.59375 C 36.053961,118.85638 39.686611,117.367 43.406251,115.6875 C 47.125881,114.00799 50.952511,112.1419 54.468751,110.65625 C 57.984991,109.1706 60.976051,107.94167 64.250001,107.9375 C 67.523951,107.93334 70.479991,109.1483 74.000001,110.625 C 77.520011,112.10169 81.369851,113.95497 85.093751,115.625 C 88.817651,117.29504 92.444151,118.80093 95.218751,119.53125 C 97.646511,120.17027 99.151181,119.89786 99.375001,119.90625 C 99.435261,119.69095 100.1139,118.35052 100.25,115.84375 C 100.40553,112.97888 100.10412,109.08783 99.656251,105.03125 C 99.208371,100.97466 98.638841,96.740738 98.312501,92.9375 C 97.986141,89.134266 97.710991,85.927495 98.718751,82.8125 C 99.726491,79.697501 101.82033,77.235155 104.3125,74.34375 C 106.80466,71.452346 109.76095,68.369316 112.5,65.34375 C 115.23905,62.318181 117.76053,59.319356 119.3125,56.90625 C 120.67047,54.794782 120.91992,53.333062 121,53.125 C 120.8122,53.000764 119.71701,51.904061 117.375,51 C 114.6984,49.966787 110.90268,49.046347 106.90625,48.21875 C 102.90981,47.391152 98.717931,46.646129 95.000001,45.78125 C 91.282061,44.91637 88.151121,44.171009 85.500001,42.25 C 82.848871,40.328991 81.167271,37.576182 79.187501,34.3125 C 77.207731,31.048819 75.187321,27.28994 73.156251,23.75 C 71.125171,20.210059 69.065421,16.877947 67.250001,14.65625 C 65.661511,12.712264 64.301791,12.045423 64.125001,11.90625 z" style="opacity:1;fill:none;fill-opacity:1;fill-rule:nonzero;stroke:url(#linearGradient2845);stroke-width:.60000002;stroke-linecap:round;stroke-linejoin:round;stroke-miterlimit:4;stroke-dasharray:none;stroke-dashoffset:4;stroke-opacity:1;filter:url(#filter3401)"/><path id="path3932" d="M 25.190679,119.77989 C 26.414679,122.74238 27.241162,124.11897 31.289475,123.31542 L 30.638356,120.21008 L 29.079766,120.3986 L 28.261711,118.57341 L 25.190679,119.77989 z" transform="matrix(-1,0,0,1,128.10515,0)" style="opacity:.7715356;fill:url(#linearGradient2847);fill-opacity:1;fill-rule:evenodd;stroke:none;stroke-width:1px;stroke-linecap:butt;stroke-linejoin:miter;stroke-opacity:1;filter:url(#filter3928)"/><path id="path3265" d="M 26.03125,94.25 C 24.983755,105.1142 22.21942,119.85075 26.78125,123.15625 C 33.15283,127.7731 56.287818,110.82251 64.15625,110.8125 C 72.024682,110.80249 95.202691,127.69555 101.5625,123.0625 C 106.10279,119.75495 103.30815,105.10184 102.21875,94.25 L 98.34375,94.25 C 98.677864,97.707156 99.164649,101.42777 99.5625,105.03125 C 100.01038,109.08783 100.31178,112.97888 100.15625,115.84375 C 100.02016,118.35052 99.34151,119.69095 99.28125,119.90625 C 99.057443,119.89786 97.552762,120.17027 95.125,119.53125 C 92.350417,118.80093 88.723899,117.29504 85,115.625 C 81.276103,113.95497 77.426259,112.10169 73.90625,110.625 C 70.386242,109.1483 67.4302,107.93334 64.15625,107.9375 C 60.882303,107.94167 57.891241,109.1706 54.375,110.65625 C 50.858761,112.1419 47.032137,114.00799 43.3125,115.6875 C 39.592862,117.367 35.960216,118.85638 33.1875,119.59375 C 30.761373,120.23895 29.286908,119.99088 29.0625,120 C 29.004012,119.7864 28.29872,118.4439 28.15625,115.9375 C 27.993428,113.07303 28.281199,109.18271 28.71875,105.125 C 29.110886,101.48845 29.580993,97.733027 29.90625,94.25 L 26.03125,94.25 z" style="opacity:1;fill:url(#radialGradient2849);fill-opacity:1;fill-rule:nonzero;stroke:none;stroke-width:14.80851269;stroke-linecap:round;stroke-linejoin:round;stroke-miterlimit:4;stroke-dasharray:none;stroke-dashoffset:4;stroke-opacity:1;filter:url(#filter3285)"/><path id="rect3289" d="M 3.96875,51.25 C 3.8072482,51.513327 3.653679,51.78066 3.5625,52.0625 C 1.4104994,58.714465 18.791507,72.91663 24.40625,81.25 C 25.066744,82.219734 25.881994,83.560003 26.151902,85.050699 C 27.656842,84.748586 29.576041,82.642021 28.90625,81.25 C 27.768648,78.87567 26.012193,76.796136 23.96875,74.4375 C 21.469238,71.552452 18.527988,68.487339 15.78125,65.46875 C 13.034512,62.450158 10.495601,59.471649 8.9375,57.0625 C 7.574162,54.954496 7.359205,53.457399 7.28125,53.25 C 7.2955626,53.33402 8.1966214,52.223338 10.53125,51.25 L 3.96875,51.25 z M 117.875,51.25 C 119.79897,52.094675 120.73559,53.012104 120.90625,53.125 C 120.82618,53.333062 120.57672,54.794782 119.21875,56.90625 C 117.66679,59.319356 115.1453,62.318181 112.40625,65.34375 C 109.66721,68.369316 106.71091,71.452346 104.21875,74.34375 C 102.16137,76.730721 100.3775,78.839259 99.25,81.25 C 98.389358,83.690958 101.19084,84.749904 102.08854,84.829728 C 102.41731,83.373922 103.07445,82.301223 103.75,81.25 C 109.28341,72.913848 126.77026,58.575986 124.59375,51.90625 C 124.52034,51.681299 124.39982,51.462951 124.28125,51.25 L 117.875,51.25 z" style="opacity:.84158415;fill:url(#radialGradient2851);fill-opacity:1;stroke:none;stroke-width:6.1420002;stroke-linecap:square;stroke-linejoin:miter;stroke-miterlimit:4;stroke-dasharray:none;stroke-dashoffset:0;stroke-opacity:1;filter:url(#filter3362)"/></g><g id="g3701"><path id="path3703" d="M 64.03125,8.2 C 56.162818,8.2100117 46.828561,34.754451 40.46875,39.3875 C 34.10894,44.020548 5.9844574,44.776082 3.5625,52.2625 C 1.1405426,59.748917 23.465249,76.813524 25.90625,84.29375 C 28.347251,91.77398 20.40967,118.7394 26.78125,123.35625 C 33.15283,127.9731 56.287818,112.02251 64.15625,112.0125 C 72.024682,112.00249 95.202691,127.89555 101.5625,123.2625 C 107.92231,118.62945 99.890544,91.686414 102.3125,84.2 C 104.73446,76.713583 127.03475,59.58648 124.59375,52.10625 C 122.15275,44.626021 94.027829,43.941849 87.65625,39.325 C 81.28467,34.708152 71.899685,8.1899879 64.03125,8.2 z M 64.03125,12.10625 C 64.208046,12.245423 65.56776,12.912264 67.15625,14.85625 C 68.97167,17.077947 71.031426,20.410059 73.0625,23.95 C 75.093573,27.48994 77.113982,31.248819 79.09375,34.5125 C 81.073519,37.776182 82.75512,40.528991 85.40625,42.45 C 88.057376,44.371009 91.18831,45.11637 94.90625,45.98125 C 98.624192,46.846129 102.81606,47.591152 106.8125,48.41875 C 110.80894,49.246347 114.60465,50.166787 117.28125,51.2 C 119.62327,52.104061 120.71845,53.200764 120.90625,53.325 C 120.82618,53.533062 120.57672,54.994782 119.21875,57.10625 C 117.66679,59.519356 115.1453,62.518181 112.40625,65.54375 C 109.66721,68.569316 106.71091,71.652346 104.21875,74.54375 C 101.72659,77.435155 99.632744,79.897501 98.625,83.0125 C 97.617256,86.127495 97.892393,89.334266 98.21875,93.1375 C 98.545107,96.940738 99.114622,101.17466 99.5625,105.23125 C 100.01038,109.28783 100.31178,113.17888 100.15625,116.04375 C 100.02016,118.55052 99.34151,119.89095 99.28125,120.10625 C 99.057443,120.09786 97.552762,120.37027 95.125,119.73125 C 92.350417,119.00093 88.723899,117.49504 85,115.825 C 81.276103,114.15497 77.426259,112.30169 73.90625,110.825 C 70.386242,109.3483 67.4302,108.13334 64.15625,108.1375 C 60.882303,108.14167 57.891241,109.3706 54.375,110.85625 C 50.858761,112.3419 47.032137,114.20799 43.3125,115.8875 C 39.592862,117.567 35.960216,119.05638 33.1875,119.79375 C 30.761373,120.43895 29.286908,120.19088 29.0625,120.2 C 29.004012,119.9864 28.29872,118.6439 28.15625,116.1375 C 27.993428,113.27303 28.281199,109.38271 28.71875,105.325 C 29.156299,101.2673 29.714573,97.035302 30.03125,93.23125 C 30.347928,89.427198 30.609418,86.187425 29.59375,83.075 C 28.578082,79.962573 26.468263,77.522553 23.96875,74.6375 C 21.469238,71.752452 18.527988,68.687339 15.78125,65.66875 C 13.034512,62.650158 10.495601,59.671649 8.9375,57.2625 C 7.5741618,55.154496 7.3592053,53.657399 7.28125,53.45 C 7.2962039,53.537785 8.2681026,52.326785 10.84375,51.325 C 13.517705,50.284977 17.34943,49.350265 21.34375,48.5125 C 25.33807,47.674737 29.534272,46.949339 33.25,46.075 C 36.96573,45.200663 40.103767,44.44025 42.75,42.5125 C 45.396234,40.584748 47.059794,37.812458 49.03125,34.54375 C 51.002705,31.275042 53.009191,27.526347 55.03125,23.98125 C 57.053308,20.436153 59.096493,17.08256 60.90625,14.85625 C 62.489787,12.908229 63.857465,12.244552 64.03125,12.10625 z" style="opacity:1;fill:url(#radialGradient3263);fill-opacity:1;fill-rule:nonzero;stroke:none;stroke-width:14.80851269;stroke-linecap:round;stroke-linejoin:round;stroke-miterlimit:4;stroke-dasharray:none;stroke-dashoffset:4;stroke-opacity:1;filter:url(#filter3259)"/><path id="path3705" d="M 153.09403,94.713757 C 144.53658,107.09689 92.616372,93.013297 78.414631,98.001518 C 64.21289,102.98974 32.50348,146.4474 18.082028,142.13539 C 3.6605746,137.82337 1.0106378,84.092245 -8.1220219,72.127031 C -17.254681,60.161818 -68.384124,43.433534 -68.739625,28.385431 C -69.095125,13.337327 -18.812666,-5.7867426 -10.255219,-18.169872 C -1.697772,-30.553002 -1.5880954,-84.349316 12.613645,-89.337536 C 26.815387,-94.325757 60.541592,-52.41396 74.963045,-48.101941 C 89.384498,-43.789923 140.58172,-60.30959 149.71438,-48.344376 C 158.84704,-36.379162 129.40853,8.6478227 129.76403,23.695927 C 130.11953,38.74403 161.65148,82.330628 153.09403,94.713757 z" transform="matrix(0.4934214,0.1726044,-0.1726044,0.4934214,42.377875,49.908537)" style="opacity:1;fill:url(#radialGradient2906);fill-opacity:1;fill-rule:nonzero;stroke:none;stroke-width:14.80892944;stroke-linecap:round;stroke-linejoin:round;stroke-miterlimit:4;stroke-dasharray:none;stroke-dashoffset:4;stroke-opacity:1"/><path id="path3707" d="M 64.03125,8 C 56.162818,8.0100117 46.828561,34.554451 40.46875,39.1875 C 34.10894,43.820548 5.984457,44.576082 3.5625,52.0625 C 1.140543,59.548917 23.465249,76.613524 25.90625,84.09375 C 28.347251,91.57398 20.40967,118.5394 26.78125,123.15625 C 33.15283,127.7731 56.287818,111.82251 64.15625,111.8125 C 72.024682,111.80249 95.202691,127.69555 101.5625,123.0625 C 107.92231,118.42945 99.890544,91.486414 102.3125,84 C 104.73446,76.513583 127.03475,59.38648 124.59375,51.90625 C 122.15275,44.426021 94.027829,43.741849 87.65625,39.125 C 81.28467,34.508152 71.899685,7.9899879 64.03125,8 z M 64.03125,11.90625 C 64.208046,12.045423 65.56776,12.712264 67.15625,14.65625 C 68.97167,16.877947 71.031426,20.210059 73.0625,23.75 C 75.093573,27.28994 77.113982,31.048819 79.09375,34.3125 C 81.073519,37.576182 82.75512,40.328991 85.40625,42.25 C 88.057376,44.171009 91.18831,44.91637 94.90625,45.78125 C 98.624192,46.646129 102.81606,47.391152 106.8125,48.21875 C 110.80894,49.046347 114.60465,49.966787 117.28125,51 C 119.62327,51.904061 120.71845,53.000764 120.90625,53.125 C 120.82618,53.333062 120.57672,54.794782 119.21875,56.90625 C 117.66679,59.319356 115.1453,62.318181 112.40625,65.34375 C 109.66721,68.369316 106.71091,71.452346 104.21875,74.34375 C 101.72659,77.235155 99.632744,79.697501 98.625,82.8125 C 97.617256,85.927495 97.892393,89.134266 98.21875,92.9375 C 98.545107,96.740738 99.114622,100.97466 99.5625,105.03125 C 100.01038,109.08783 100.31178,112.97888 100.15625,115.84375 C 100.02016,118.35052 99.34151,119.69095 99.28125,119.90625 C 99.057443,119.89786 97.552762,120.17027 95.125,119.53125 C 92.350417,118.80093 88.723899,117.29504 85,115.625 C 81.276103,113.95497 77.426259,112.10169 73.90625,110.625 C 70.386242,109.1483 67.4302,107.93334 64.15625,107.9375 C 60.882303,107.94167 57.891241,109.1706 54.375,110.65625 C 50.858761,112.1419 47.032137,114.00799 43.3125,115.6875 C 39.592862,117.367 35.960216,118.85638 33.1875,119.59375 C 30.761373,120.23895 29.286908,119.99088 29.0625,120 C 29.004012,119.7864 28.29872,118.4439 28.15625,115.9375 C 27.993428,113.07303 28.281199,109.18271 28.71875,105.125 C 29.156299,101.0673 29.714573,96.835302 30.03125,93.03125 C 30.347928,89.227198 30.609418,85.987425 29.59375,82.875 C 28.578082,79.762573 26.468263,77.322553 23.96875,74.4375 C 21.469238,71.552452 18.527988,68.487339 15.78125,65.46875 C 13.034512,62.450158 10.495601,59.471649 8.9375,57.0625 C 7.574162,54.954496 7.359205,53.457399 7.28125,53.25 C 7.296204,53.337785 8.268103,52.126785 10.84375,51.125 C 13.517705,50.084977 17.34943,49.150265 21.34375,48.3125 C 25.33807,47.474737 29.534272,46.749339 33.25,45.875 C 36.96573,45.000663 40.103767,44.24025 42.75,42.3125 C 45.396234,40.384748 47.059794,37.612458 49.03125,34.34375 C 51.002705,31.075042 53.009191,27.326347 55.03125,23.78125 C 57.053308,20.236153 59.096493,16.88256 60.90625,14.65625 C 62.489787,12.708229 63.857465,12.044552 64.03125,11.90625 z" style="opacity:1;fill:url(#linearGradient2475);fill-opacity:1;fill-rule:nonzero;stroke:none;stroke-width:14.80851269;stroke-linecap:round;stroke-linejoin:round;stroke-miterlimit:4;stroke-dasharray:none;stroke-dashoffset:4;stroke-opacity:1"/><path id="path3709" d="M 60.98796,9.471226 C 62.846491,8.2143022 64.889907,8.0204702 67.219338,9.471226 L 64.037358,15.614216 L 60.98796,9.471226 z" style="fill:url(#linearGradient3800);fill-opacity:1;fill-rule:evenodd;stroke:none;stroke-width:1px;stroke-linecap:butt;stroke-linejoin:miter;stroke-opacity:1;filter:url(#filter3838)"/><path id="path3711" d="M 64.039064,11.90625 C 63.865274,12.044552 62.497594,12.708229 60.914064,14.65625 C 59.104304,16.88256 57.061124,20.236153 55.039064,23.78125 C 53.017004,27.326347 51.010514,31.075042 49.039064,34.34375 C 47.067604,37.612458 45.404044,40.384748 42.757814,42.3125 C 40.111574,44.24025 36.973544,45.000663 33.257814,45.875 C 29.542084,46.749339 25.345884,47.474737 21.351564,48.3125 C 17.357244,49.150265 13.525514,50.084977 10.851564,51.125 C 8.2759131,52.126785 7.3040131,53.337785 7.2890631,53.25 C 7.3670131,53.457399 7.5819731,54.954496 8.9453131,57.0625 C 10.503414,59.471649 13.042324,62.450158 15.789064,65.46875 C 18.535804,68.487339 21.477054,71.552452 23.976564,74.4375 C 26.476074,77.322553 28.585894,79.762573 29.601564,82.875 C 29.865144,83.682722 30.019904,84.511238 30.132814,85.34375 C 32.540654,85.431079 34.961934,85.5 37.414064,85.5 C 64.456484,85.5 88.974124,80.107134 106.91406,71.34375 C 108.71383,69.370041 110.60784,67.338911 112.41406,65.34375 C 115.15311,62.318181 117.67459,59.319356 119.22656,56.90625 C 120.58453,54.794782 120.83398,53.333062 120.91406,53.125 C 120.72626,53.000764 119.63107,51.904061 117.28906,51 C 114.61246,49.966787 110.81674,49.046347 106.82031,48.21875 C 102.82387,47.391152 98.631994,46.646129 94.914064,45.78125 C 91.196124,44.91637 88.065184,44.171009 85.414064,42.25 C 82.762934,40.328991 81.081334,37.576182 79.101564,34.3125 C 77.121794,31.048819 75.101384,27.28994 73.070314,23.75 C 71.039234,20.210059 68.979484,16.877947 67.164064,14.65625 C 65.575574,12.712264 64.215854,12.045423 64.039064,11.90625 z" style="opacity:1;fill:url(#radialGradient3372);fill-opacity:1;fill-rule:nonzero;stroke:none;stroke-width:14.80892944;stroke-linecap:round;stroke-linejoin:round;stroke-miterlimit:4;stroke-dasharray:none;stroke-dashoffset:4;stroke-opacity:1"/><path id="path3713" d="M 44.96875,33.9375 L 44.1875,35.21875 C 44.177097,35.219516 44.166653,35.219516 44.15625,35.21875 L 42.8125,36.9375 L 41.53125,38.46875 C 41.521947,38.480223 41.511473,38.490697 41.5,38.5 L 40.03125,39.71875 C 40.021947,39.730223 40.011473,39.740697 40,39.75 L 37.125,41.03125 C 37.115697,41.042723 37.105223,41.053197 37.09375,41.0625 L 33.875,41.96875 L 33.375,45.625 L 35.125,45.21875 L 35.125,45.25 L 39.71875,43.75 L 39.75,43.75 L 42.8125,42.0625 L 42.875,42.03125 L 45.78125,39.09375 L 45.8125,39.0625 L 48.96875,34.03125 L 44.96875,33.9375 z" transform="translate(0,0.3)" style="opacity:.64356432;fill:url(#radialGradient3669);fill-opacity:1;fill-rule:evenodd;stroke:none;stroke-width:1px;stroke-linecap:butt;stroke-linejoin:miter;stroke-opacity:1;filter:url(#filter3663)"/><path id="path3715" d="M 64.039064,11.90625 C 63.865274,12.044552 62.497594,12.708229 60.914064,14.65625 C 59.104304,16.88256 57.061124,20.236153 55.039064,23.78125 C 53.017004,27.326347 51.010514,31.075042 49.039064,34.34375 C 47.067604,37.612458 45.404044,40.384748 42.757814,42.3125 C 40.111574,44.24025 36.973544,45.000663 33.257814,45.875 C 29.542084,46.749339 25.345884,47.474737 21.351564,48.3125 C 17.357244,49.150265 13.525514,50.084977 10.851564,51.125 C 8.2759131,52.126785 7.3040131,53.337785 7.2890631,53.25 C 7.3670131,53.457399 7.5819731,54.954496 8.9453131,57.0625 C 10.503414,59.471649 13.042324,62.450158 15.789064,65.46875 C 18.535804,68.487339 21.477054,71.552452 23.976564,74.4375 C 26.476074,77.322553 28.585894,79.762573 29.601564,82.875 C 29.865144,83.682722 30.019904,84.511238 30.132814,85.34375 C 32.540654,85.431079 34.961934,85.5 37.414064,85.5 C 64.456484,85.5 88.974124,80.107134 106.91406,71.34375 C 108.71383,69.370041 110.60784,67.338911 112.41406,65.34375 C 115.15311,62.318181 117.67459,59.319356 119.22656,56.90625 C 120.58453,54.794782 120.83398,53.333062 120.91406,53.125 C 120.72626,53.000764 119.63107,51.904061 117.28906,51 C 114.61246,49.966787 110.81674,49.046347 106.82031,48.21875 C 102.82387,47.391152 98.631994,46.646129 94.914064,45.78125 C 91.196124,44.91637 88.065184,44.171009 85.414064,42.25 C 82.762934,40.328991 81.081334,37.576182 79.101564,34.3125 C 77.121794,31.048819 75.101384,27.28994 73.070314,23.75 C 71.039234,20.210059 68.979484,16.877947 67.164064,14.65625 C 65.575574,12.712264 64.215854,12.045423 64.039064,11.90625 z" style="opacity:1;fill:url(#linearGradient3315);fill-opacity:1;fill-rule:nonzero;stroke:none;stroke-width:14.80892944;stroke-linecap:round;stroke-linejoin:round;stroke-miterlimit:4;stroke-dasharray:none;stroke-dashoffset:4;stroke-opacity:1"/><path id="path3717" d="M 44.96875,33.9375 L 44.1875,35.21875 C 44.177097,35.219516 44.166653,35.219516 44.15625,35.21875 L 42.8125,36.9375 L 41.53125,38.46875 C 41.521947,38.480223 41.511473,38.490697 41.5,38.5 L 40.03125,39.71875 C 40.021947,39.730223 40.011473,39.740697 40,39.75 L 37.125,41.03125 C 37.115697,41.042723 37.105223,41.053197 37.09375,41.0625 L 33.875,41.96875 L 33.375,45.625 L 35.125,45.21875 L 35.125,45.25 L 39.71875,43.75 L 39.75,43.75 L 42.8125,42.0625 L 42.875,42.03125 L 45.78125,39.09375 L 45.8125,39.0625 L 48.96875,34.03125 L 44.96875,33.9375 z" transform="matrix(-1,0,0,1,128.125,0.3)" style="opacity:.64356432;fill:url(#radialGradient3673);fill-opacity:1;fill-rule:evenodd;stroke:none;stroke-width:1px;stroke-linecap:butt;stroke-linejoin:miter;stroke-opacity:1;filter:url(#filter3663)"/><g id="g3719" transform="translate(-132.29928,0)"><path id="path3721" d="M 196.34375,11.90625 C 196.16996,12.044552 194.80228,12.708229 193.21875,14.65625 C 191.40899,16.88256 189.36581,20.236153 187.34375,23.78125 C 185.32169,27.326347 183.3152,31.075042 181.34375,34.34375 C 179.37229,37.612458 177.70873,40.384748 175.0625,42.3125 C 172.41626,44.24025 169.27823,45.000663 165.5625,45.875 C 161.84677,46.749339 157.65057,47.474737 153.65625,48.3125 C 149.66193,49.150265 145.8302,50.084977 143.15625,51.125 C 140.5806,52.126785 139.6087,53.337785 139.59375,53.25 C 139.62377,53.329884 139.71528,53.638731 139.84375,54.0625 C 140.2595,53.69998 141.25985,52.862595 143.15625,52.125 C 145.8302,51.084977 149.66193,50.150265 153.65625,49.3125 C 157.65057,48.474737 161.84677,47.749339 165.5625,46.875 C 169.27823,46.000663 172.41626,45.24025 175.0625,43.3125 C 177.70873,41.384748 179.37229,38.612458 181.34375,35.34375 C 183.3152,32.075042 185.32169,28.326347 187.34375,24.78125 C 189.36581,21.236153 191.40899,17.88256 193.21875,15.65625 C 194.80228,13.708229 196.16996,13.044552 196.34375,12.90625 C 196.52054,13.045423 197.88026,13.712264 199.46875,15.65625 C 201.28417,17.877947 203.34392,21.210059 205.375,24.75 C 207.40607,28.28994 209.42648,32.048819 211.40625,35.3125 C 213.38602,38.576182 215.06762,41.328991 217.71875,43.25 C 220.36987,45.171009 223.50081,45.91637 227.21875,46.78125 C 230.93668,47.646129 235.12856,48.391152 239.125,49.21875 C 243.12143,50.046347 246.91715,50.966787 249.59375,52 C 251.51448,52.74144 252.56925,53.579608 253,53.9375 C 253.13371,53.522484 253.18802,53.204851 253.21875,53.125 C 253.03095,53.000764 251.93576,51.904061 249.59375,51 C 246.91715,49.966787 243.12143,49.046347 239.125,48.21875 C 235.12856,47.391152 230.93668,46.646129 227.21875,45.78125 C 223.50081,44.91637 220.36987,44.171009 217.71875,42.25 C 215.06762,40.328991 213.38602,37.576182 211.40625,34.3125 C 209.42648,31.048819 207.40607,27.28994 205.375,23.75 C 203.34392,20.210059 201.28417,16.877947 199.46875,14.65625 C 197.88026,12.712264 196.52054,12.045423 196.34375,11.90625 z" style="opacity:1;fill:url(#linearGradient3369);fill-opacity:1;fill-rule:nonzero;stroke:none;stroke-width:14.80892944;stroke-linecap:round;stroke-linejoin:round;stroke-miterlimit:4;stroke-dasharray:none;stroke-dashoffset:4;stroke-opacity:1"/><path id="path3723" d="M 246.78125,49.937636 C 247.42469,50.142466 248.03845,50.379526 248.59375,50.593886 C 250.93576,51.497946 252.03095,52.594656 252.21875,52.718886 C 252.13867,52.926956 251.88922,54.388676 250.53125,56.500136 C 248.97928,58.913246 246.4578,61.912066 243.71875,64.937636 C 241.91253,66.932796 240.01852,68.963926 238.21875,70.937636 C 220.27881,79.701026 195.76117,85.093886 168.71875,85.093886 C 166.59433,85.093886 164.49568,85.039506 162.40625,84.968886 C 162.4184,85.051736 162.42625,85.135936 162.4375,85.218886 C 164.84534,85.306216 167.26662,85.375136 169.71875,85.375136 C 196.76117,85.375136 221.27881,79.982276 239.21875,71.218886 C 241.01852,69.245176 242.91253,67.214046 244.71875,65.218886 C 247.4578,62.193316 249.97928,59.194496 251.53125,56.781386 C 252.88922,54.669926 253.13867,53.208206 253.21875,53.000136 C 253.03095,52.875906 251.93576,51.779196 249.59375,50.875136 C 248.75868,50.552786 247.80629,50.238636 246.78125,49.937636 z" style="opacity:1;fill:url(#linearGradient3345);fill-opacity:1;fill-rule:nonzero;stroke:none;stroke-width:14.80892944;stroke-linecap:round;stroke-linejoin:round;stroke-miterlimit:4;stroke-dasharray:none;stroke-dashoffset:4;stroke-opacity:1"/></g><path id="path3725" d="M 25.190679,119.77989 C 26.414679,122.74238 27.241162,124.11897 31.289475,123.31542 L 30.638356,120.21008 L 29.079766,120.3986 L 28.261711,118.57341 L 25.190679,119.77989 z" style="opacity:.7715356;fill:url(#linearGradient2853);fill-opacity:1;fill-rule:evenodd;stroke:none;stroke-width:1px;stroke-linecap:butt;stroke-linejoin:miter;stroke-opacity:1;filter:url(#filter3928)"/><path id="path3727" d="M 26.03125,94.25 C 24.983755,105.1142 22.21942,119.85075 26.78125,123.15625 C 33.15283,127.7731 56.287818,111.82251 64.15625,111.8125 C 72.024682,111.80249 95.202691,127.69555 101.5625,123.0625 C 106.10279,119.75495 103.30815,105.10184 102.21875,94.25 L 98.34375,94.25 C 98.677864,97.707156 99.164649,101.42777 99.5625,105.03125 C 100.01038,109.08783 100.31178,112.97888 100.15625,115.84375 C 100.02016,118.35052 99.34151,119.69095 99.28125,119.90625 C 99.057443,119.89786 97.552762,120.17027 95.125,119.53125 C 92.350417,118.80093 88.723899,117.29504 85,115.625 C 81.276103,113.95497 77.426259,112.10169 73.90625,110.625 C 70.386242,109.1483 67.4302,107.93334 64.15625,107.9375 C 60.882303,107.94167 57.891241,109.1706 54.375,110.65625 C 50.858761,112.1419 47.032137,114.00799 43.3125,115.6875 C 39.592862,117.367 35.960216,118.85638 33.1875,119.59375 C 30.761373,120.23895 29.286908,119.99088 29.0625,120 C 29.004012,119.7864 28.29872,118.4439 28.15625,115.9375 C 27.993428,113.07303 28.281199,109.18271 28.71875,105.125 C 29.110886,101.48845 29.580993,97.733027 29.90625,94.25 L 26.03125,94.25 z" style="opacity:1;fill:url(#radialGradient3956);fill-opacity:1;fill-rule:nonzero;stroke:none;stroke-width:14.80851269;stroke-linecap:round;stroke-linejoin:round;stroke-miterlimit:4;stroke-dasharray:none;stroke-dashoffset:4;stroke-opacity:1"/><path id="path3729" d="M 64.125001,11.90625 C 63.951211,12.044552 62.583531,12.708229 61.000001,14.65625 C 59.190241,16.88256 57.147061,20.236153 55.125001,23.78125 C 53.102941,27.326347 51.096451,31.075042 49.125001,34.34375 C 47.153541,37.612458 45.489981,40.384748 42.843751,42.3125 C 40.197511,44.24025 37.059481,45.000663 33.343751,45.875 C 29.628021,46.749339 25.431821,47.474737 21.437501,48.3125 C 17.443181,49.150265 13.611451,50.084977 10.937501,51.125 C 8.3618506,52.126785 7.3899506,53.337785 7.3750006,53.25 C 7.4529506,53.457399 7.6679106,54.954496 9.0312506,57.0625 C 10.589351,59.471649 13.128261,62.450158 15.875001,65.46875 C 18.621741,68.487339 21.562991,71.552452 24.062501,74.4375 C 26.562011,77.322553 28.671831,79.762573 29.687501,82.875 C 30.703171,85.987425 30.441681,89.227198 30.125001,93.03125 C 29.808321,96.835302 29.250051,101.0673 28.812501,105.125 C 28.374951,109.18271 28.087181,113.07303 28.250001,115.9375 C 28.392471,118.4439 29.097761,119.7864 29.156251,120 C 29.380661,119.99088 30.855121,120.23895 33.281251,119.59375 C 36.053961,118.85638 39.686611,117.367 43.406251,115.6875 C 47.125881,114.00799 50.952511,112.1419 54.468751,110.65625 C 57.984991,109.1706 60.976051,107.94167 64.250001,107.9375 C 67.523951,107.93334 70.479991,109.1483 74.000001,110.625 C 77.520011,112.10169 81.369851,113.95497 85.093751,115.625 C 88.817651,117.29504 92.444151,118.80093 95.218751,119.53125 C 97.646511,120.17027 99.151181,119.89786 99.375001,119.90625 C 99.435261,119.69095 100.1139,118.35052 100.25,115.84375 C 100.40553,112.97888 100.10412,109.08783 99.656251,105.03125 C 99.208371,100.97466 98.638841,96.740738 98.312501,92.9375 C 97.986141,89.134266 97.710991,85.927495 98.718751,82.8125 C 99.726491,79.697501 101.82033,77.235155 104.3125,74.34375 C 106.80466,71.452346 109.76095,68.369316 112.5,65.34375 C 115.23905,62.318181 117.76053,59.319356 119.3125,56.90625 C 120.67047,54.794782 120.91992,53.333062 121,53.125 C 120.8122,53.000764 119.71701,51.904061 117.375,51 C 114.6984,49.966787 110.90268,49.046347 106.90625,48.21875 C 102.90981,47.391152 98.717931,46.646129 95.000001,45.78125 C 91.282061,44.91637 88.151121,44.171009 85.500001,42.25 C 82.848871,40.328991 81.167271,37.576182 79.187501,34.3125 C 77.207731,31.048819 75.187321,27.28994 73.156251,23.75 C 71.125171,20.210059 69.065421,16.877947 67.250001,14.65625 C 65.661511,12.712264 64.301791,12.045423 64.125001,11.90625 z" style="opacity:1;fill:none;fill-opacity:1;fill-rule:nonzero;stroke:url(#linearGradient2855);stroke-width:1;stroke-linecap:round;stroke-linejoin:round;stroke-miterlimit:4;stroke-dasharray:none;stroke-dashoffset:4;stroke-opacity:1;filter:url(#filter3391)"/><g id="g3731" transform="matrix(-1,0,0,1,128.17175,0)"><path id="path3733" d="M 122.34464,49.937924 L 118.89749,52.943128 L 119.6046,54.97606 L 123.93563,55.771555 C 124.26838,53.827011 124.96313,51.882468 122.34464,49.937924 z" style="opacity:.60891089;fill:url(#radialGradient3618);fill-opacity:1;fill-rule:evenodd;stroke:none;stroke-width:1px;stroke-linecap:butt;stroke-linejoin:miter;stroke-opacity:1;filter:url(#filter3564)"/><path id="path3735" d="M 122.34464,49.937924 L 118.89749,52.943128 L 119.6046,54.97606 L 123.93563,55.771555 C 124.26838,53.827011 124.96313,51.882468 122.34464,49.937924 z" style="opacity:.60891089;fill:url(#radialGradient3620);fill-opacity:1;fill-rule:evenodd;stroke:none;stroke-width:1px;stroke-linecap:butt;stroke-linejoin:miter;stroke-opacity:1;filter:url(#filter3604)"/></g><g id="g3737"><path id="path3739" d="M 122.34464,49.937924 L 118.89749,52.943128 L 119.6046,54.97606 L 123.93563,55.771555 C 124.26838,53.827011 124.96313,51.882468 122.34464,49.937924 z" style="opacity:.60891089;fill:url(#radialGradient3382);fill-opacity:1;fill-rule:evenodd;stroke:none;stroke-width:1px;stroke-linecap:butt;stroke-linejoin:miter;stroke-opacity:1;filter:url(#filter3564)"/><path id="path3741" d="M 122.34464,49.937924 L 118.89749,52.943128 L 119.6046,54.97606 L 123.93563,55.771555 C 124.26838,53.827011 124.96313,51.882468 122.34464,49.937924 z" style="opacity:.60891089;fill:url(#radialGradient3570);fill-opacity:1;fill-rule:evenodd;stroke:none;stroke-width:1px;stroke-linecap:butt;stroke-linejoin:miter;stroke-opacity:1;filter:url(#filter3604)"/></g><path id="path3743" d="M 64.125001,11.90625 C 63.951211,12.044552 62.583531,12.708229 61.000001,14.65625 C 59.190241,16.88256 57.147061,20.236153 55.125001,23.78125 C 53.102941,27.326347 51.096451,31.075042 49.125001,34.34375 C 47.153541,37.612458 45.489981,40.384748 42.843751,42.3125 C 40.197511,44.24025 37.059481,45.000663 33.343751,45.875 C 29.628021,46.749339 25.431821,47.474737 21.437501,48.3125 C 17.443181,49.150265 13.611451,50.084977 10.937501,51.125 C 8.3618506,52.126785 7.3899506,53.337785 7.3750006,53.25 C 7.4529506,53.457399 7.6679106,54.954496 9.0312506,57.0625 C 10.589351,59.471649 13.128261,62.450158 15.875001,65.46875 C 18.621741,68.487339 21.562991,71.552452 24.062501,74.4375 C 26.562011,77.322553 28.671831,79.762573 29.687501,82.875 C 30.703171,85.987425 30.441681,89.227198 30.125001,93.03125 C 29.808321,96.835302 29.250051,101.0673 28.812501,105.125 C 28.374951,109.18271 28.087181,113.07303 28.250001,115.9375 C 28.392471,118.4439 29.097761,119.7864 29.156251,120 C 29.380661,119.99088 30.855121,120.23895 33.281251,119.59375 C 36.053961,118.85638 39.686611,117.367 43.406251,115.6875 C 47.125881,114.00799 50.952511,112.1419 54.468751,110.65625 C 57.984991,109.1706 60.976051,107.94167 64.250001,107.9375 C 67.523951,107.93334 70.479991,109.1483 74.000001,110.625 C 77.520011,112.10169 81.369851,113.95497 85.093751,115.625 C 88.817651,117.29504 92.444151,118.80093 95.218751,119.53125 C 97.646511,120.17027 99.151181,119.89786 99.375001,119.90625 C 99.435261,119.69095 100.1139,118.35052 100.25,115.84375 C 100.40553,112.97888 100.10412,109.08783 99.656251,105.03125 C 99.208371,100.97466 98.638841,96.740738 98.312501,92.9375 C 97.986141,89.134266 97.710991,85.927495 98.718751,82.8125 C 99.726491,79.697501 101.82033,77.235155 104.3125,74.34375 C 106.80466,71.452346 109.76095,68.369316 112.5,65.34375 C 115.23905,62.318181 117.76053,59.319356 119.3125,56.90625 C 120.67047,54.794782 120.91992,53.333062 121,53.125 C 120.8122,53.000764 119.71701,51.904061 117.375,51 C 114.6984,49.966787 110.90268,49.046347 106.90625,48.21875 C 102.90981,47.391152 98.717931,46.646129 95.000001,45.78125 C 91.282061,44.91637 88.151121,44.171009 85.500001,42.25 C 82.848871,40.328991 81.167271,37.576182 79.187501,34.3125 C 77.207731,31.048819 75.187321,27.28994 73.156251,23.75 C 71.125171,20.210059 69.065421,16.877947 67.250001,14.65625 C 65.661511,12.712264 64.301791,12.045423 64.125001,11.90625 z" style="opacity:1;fill:none;fill-opacity:1;fill-rule:nonzero;stroke:url(#linearGradient3385);stroke-width:.60000002;stroke-linecap:round;stroke-linejoin:round;stroke-miterlimit:4;stroke-dasharray:none;stroke-dashoffset:4;stroke-opacity:1;filter:url(#filter3401)"/><path id="path3745" d="M 25.190679,119.77989 C 26.414679,122.74238 27.241162,124.11897 31.289475,123.31542 L 30.638356,120.21008 L 29.079766,120.3986 L 28.261711,118.57341 L 25.190679,119.77989 z" transform="matrix(-1,0,0,1,128.10515,0)" style="opacity:.7715356;fill:url(#linearGradient3934);fill-opacity:1;fill-rule:evenodd;stroke:none;stroke-width:1px;stroke-linecap:butt;stroke-linejoin:miter;stroke-opacity:1;filter:url(#filter3928)"/><path id="path3747" d="M 26.03125,94.25 C 24.983755,105.1142 22.21942,119.85075 26.78125,123.15625 C 33.15283,127.7731 56.287818,110.82251 64.15625,110.8125 C 72.024682,110.80249 95.202691,127.69555 101.5625,123.0625 C 106.10279,119.75495 103.30815,105.10184 102.21875,94.25 L 98.34375,94.25 C 98.677864,97.707156 99.164649,101.42777 99.5625,105.03125 C 100.01038,109.08783 100.31178,112.97888 100.15625,115.84375 C 100.02016,118.35052 99.34151,119.69095 99.28125,119.90625 C 99.057443,119.89786 97.552762,120.17027 95.125,119.53125 C 92.350417,118.80093 88.723899,117.29504 85,115.625 C 81.276103,113.95497 77.426259,112.10169 73.90625,110.625 C 70.386242,109.1483 67.4302,107.93334 64.15625,107.9375 C 60.882303,107.94167 57.891241,109.1706 54.375,110.65625 C 50.858761,112.1419 47.032137,114.00799 43.3125,115.6875 C 39.592862,117.367 35.960216,118.85638 33.1875,119.59375 C 30.761373,120.23895 29.286908,119.99088 29.0625,120 C 29.004012,119.7864 28.29872,118.4439 28.15625,115.9375 C 27.993428,113.07303 28.281199,109.18271 28.71875,105.125 C 29.110886,101.48845 29.580993,97.733027 29.90625,94.25 L 26.03125,94.25 z" style="opacity:1;fill:url(#radialGradient3267);fill-opacity:1;fill-rule:nonzero;stroke:none;stroke-width:14.80851269;stroke-linecap:round;stroke-linejoin:round;stroke-miterlimit:4;stroke-dasharray:none;stroke-dashoffset:4;stroke-opacity:1;filter:url(#filter3285)"/><path id="path3749" d="M 3.96875,51.25 C 3.8072482,51.513327 3.653679,51.78066 3.5625,52.0625 C 1.4104994,58.714465 18.791507,72.91663 24.40625,81.25 C 25.066744,82.219734 25.881994,83.560003 26.151902,85.050699 C 27.656842,84.748586 29.576041,82.642021 28.90625,81.25 C 27.768648,78.87567 26.012193,76.796136 23.96875,74.4375 C 21.469238,71.552452 18.527988,68.487339 15.78125,65.46875 C 13.034512,62.450158 10.495601,59.471649 8.9375,57.0625 C 7.574162,54.954496 7.359205,53.457399 7.28125,53.25 C 7.2955626,53.33402 8.1966214,52.223338 10.53125,51.25 L 3.96875,51.25 z M 117.875,51.25 C 119.79897,52.094675 120.73559,53.012104 120.90625,53.125 C 120.82618,53.333062 120.57672,54.794782 119.21875,56.90625 C 117.66679,59.319356 115.1453,62.318181 112.40625,65.34375 C 109.66721,68.369316 106.71091,71.452346 104.21875,74.34375 C 102.16137,76.730721 100.3775,78.839259 99.25,81.25 C 98.389358,83.690958 101.19084,84.749904 102.08854,84.829728 C 102.41731,83.373922 103.07445,82.301223 103.75,81.25 C 109.28341,72.913848 126.77026,58.575986 124.59375,51.90625 C 124.52034,51.681299 124.39982,51.462951 124.28125,51.25 L 117.875,51.25 z" style="opacity:.84158415;fill:url(#radialGradient3300);fill-opacity:1;stroke:none;stroke-width:6.1420002;stroke-linecap:square;stroke-linejoin:miter;stroke-miterlimit:4;stroke-dasharray:none;stroke-dashoffset:0;stroke-opacity:1;filter:url(#filter3362)"/></g></g></g></svg>