<svg xmlns="http://www.w3.org/2000/svg" xmlns:svg="http://www.w3.org/2000/svg" xmlns:xlink="http://www.w3.org/1999/xlink" id="svg2" width="128mm" height="128mm" version="1.1" viewBox="0 0 453.543 453.543"><defs id="defs4"><linearGradient id="linearGradient4166"><stop style="stop-color:#7593d7;stop-opacity:1" id="stop4168" offset="0"/><stop style="stop-color:#4f6aa3;stop-opacity:1" id="stop4170" offset="1"/></linearGradient><linearGradient id="linearGradient4174" x1="351.429" x2="351.429" y1="513.791" y2="943.791" gradientTransform="translate(24.999996,-5.8267714e-6)" gradientUnits="userSpaceOnUse" xlink:href="#linearGradient4166"/></defs><metadata id="metadata7"/><g id="layer1" transform="translate(-1.4285583,-500.24745)"><path style="fill:url(#linearGradient4174);fill-opacity:1;fill-rule:evenodd" id="path4157" d="m 73.928594,513.79076 a 37.5,37.5 0 0 0 -37.36914,34.88476 l -0.13086,0.11524 0,2.5 0,302.5 0.11914,0.11914 a 37.5,37.5 0 0 0 -0.11914,2.38086 37.5,37.5 0 0 0 37.5,37.5 37.5,37.5 0 0 0 2.41406,-0.0859 l 0.0859,0.0859 250.000006,0 -10,-40 100,90 0,-392.5 0,-2.5 -0.0918,-0.0918 a 37.5,37.5 0 0 0 -34.77734,-34.77734 l -0.13086,-0.13086 -2.5,0 -302.500006,0 -0.13477,0.11914 a 37.5,37.5 0 0 0 -2.36523,-0.11914 z"/><path style="opacity:1;fill:#fff;fill-rule:evenodd" id="path4176" d="m 262.51367,111.60742 -3.53515,4.79688 c 20.92905,7.8755 41.53825,15.82838 52.90625,26.01172 -54.51023,-27.29925 -111.94069,-29.57156 -173.11524,0.25195 13.83558,-12.04023 34.12183,-19.9521 56.31641,-26.64258 l -2.39844,-3.78711 c -19.87573,2.47189 -39.74673,4.97961 -57.48273,19.75608 -1.26426,1.0533 -2.43875,1.7112 -3.75946,3.35134 -1.04157,1.68882 -1.47654,2.94289 -2.20384,4.4259 -16.51968,33.6846 -29.13904,71.47893 -29.23561,122.47449 13.7929,19.97074 35.85963,31.20604 66.79492,33.08203 l 14.01563,-19.0664 c -16.32939,-4.839 -28.63498,-12.99042 -36.86914,-24.4961 68.24127,41.30702 122.04171,25.27927 169.32617,-0.50585 -10.12692,12.60017 -23.08016,21.50538 -39.39649,26.01171 l 14.52149,17.80469 c 31.64413,-2.6726 53.44205,-13.71547 66.03906,-32.57812 -1.25854,-42.6757 -9.40904,-79.47015 -23.71494,-111.01207 -2.51316,-5.54105 -4.27674,-11.49413 -8.10537,-16.14028 -3.45571,-4.1936 -7.96544,-7.13252 -12.90109,-9.9657 -12.42806,-7.13399 -28.6789,-11.32721 -47.20243,-13.77258 z m -76.00195,82.42383 c 12.33462,8e-5 22.33381,10.55717 22.33398,23.58008 -1.7e-4,13.02291 -9.99936,23.58 -22.33398,23.58008 -12.33462,-7e-5 -22.33382,-10.55716 -22.33399,-23.58008 1.7e-4,-13.02292 9.99937,-23.58001 22.33399,-23.58008 z m 79.54883,0 c 12.33462,8e-5 22.33381,10.55717 22.33398,23.58008 -1.7e-4,13.02291 -9.99936,23.58 -22.33398,23.58008 -12.33462,-7e-5 -22.33382,-10.55716 -22.33399,-23.58008 1.7e-4,-13.02292 9.99937,-23.58001 22.33399,-23.58008 z" transform="translate(1.4285583,500.24745)"/></g></svg>